<mxfile host="app.diagrams.net" modified="2022-12-23T02:09:25.614Z" agent="5.0 (Windows NT 10.0; Win64; x64) AppleWebKit/537.36 (KHTML, like Gecko) Chrome/108.0.0.0 Safari/537.36" etag="Jc9ivTGB7uutLvcTaz9l" version="20.7.4" type="github" pages="2">
  <diagram id="kCKb7sFNtNQACJCm1Rp3" name="Page-1">
    <mxGraphModel dx="1050" dy="619" grid="1" gridSize="10" guides="1" tooltips="1" connect="1" arrows="1" fold="1" page="1" pageScale="1" pageWidth="1920" pageHeight="1200" background="#F1FAEE" math="0" shadow="0">
      <root>
        <mxCell id="0" />
        <mxCell id="1" parent="0" />
        <mxCell id="yh_sQvZe-Dtuo9pEbm0h-1" value="answer" style="swimlane;fontStyle=1;align=center;verticalAlign=top;childLayout=stackLayout;horizontal=1;startSize=26;horizontalStack=0;resizeParent=1;resizeParentMax=0;resizeLast=0;collapsible=1;marginBottom=0;rounded=1;glass=0;sketch=0;fillColor=#dae8fc;strokeColor=#6c8ebf;swimlaneLine=0;" parent="1" vertex="1">
          <mxGeometry x="991" y="854" width="200" height="120" as="geometry">
            <mxRectangle x="20" y="30" width="80" height="30" as="alternateBounds" />
          </mxGeometry>
        </mxCell>
        <mxCell id="yh_sQvZe-Dtuo9pEbm0h-2" value="+ id: ObjectId" style="text;strokeColor=none;fillColor=none;align=left;verticalAlign=top;spacingLeft=4;spacingRight=4;overflow=hidden;rotatable=0;points=[[0,0.5],[1,0.5]];portConstraint=eastwest;rounded=0;glass=0;sketch=0;fontColor=#1D3557;swimlaneLine=0;" parent="yh_sQvZe-Dtuo9pEbm0h-1" vertex="1">
          <mxGeometry y="26" width="200" height="26" as="geometry" />
        </mxCell>
        <mxCell id="yh_sQvZe-Dtuo9pEbm0h-3" value="" style="line;strokeWidth=1;fillColor=none;align=left;verticalAlign=middle;spacingTop=-1;spacingLeft=3;spacingRight=3;rotatable=0;labelPosition=right;points=[];portConstraint=eastwest;rounded=0;glass=0;sketch=0;labelBackgroundColor=#F1FAEE;strokeColor=#457B9D;fontColor=#1D3557;swimlaneLine=0;" parent="yh_sQvZe-Dtuo9pEbm0h-1" vertex="1">
          <mxGeometry y="52" width="200" height="8" as="geometry" />
        </mxCell>
        <mxCell id="yh_sQvZe-Dtuo9pEbm0h-4" value="+ content: String" style="text;strokeColor=none;fillColor=none;align=left;verticalAlign=top;spacingLeft=4;spacingRight=4;overflow=hidden;rotatable=0;points=[[0,0.5],[1,0.5]];portConstraint=eastwest;rounded=0;glass=0;sketch=0;fontColor=#1D3557;swimlaneLine=0;" parent="yh_sQvZe-Dtuo9pEbm0h-1" vertex="1">
          <mxGeometry y="60" width="200" height="26" as="geometry" />
        </mxCell>
        <mxCell id="yh_sQvZe-Dtuo9pEbm0h-5" value="" style="line;strokeWidth=1;fillColor=none;align=left;verticalAlign=middle;spacingTop=-1;spacingLeft=3;spacingRight=3;rotatable=0;labelPosition=right;points=[];portConstraint=eastwest;rounded=1;glass=0;sketch=0;labelBackgroundColor=#F1FAEE;strokeColor=#457B9D;fontColor=#1D3557;swimlaneLine=0;" parent="yh_sQvZe-Dtuo9pEbm0h-1" vertex="1">
          <mxGeometry y="86" width="200" height="8" as="geometry" />
        </mxCell>
        <mxCell id="yh_sQvZe-Dtuo9pEbm0h-6" value="+ isCorrect: Boolean" style="text;strokeColor=none;fillColor=none;align=left;verticalAlign=top;spacingLeft=4;spacingRight=4;overflow=hidden;rotatable=0;points=[[0,0.5],[1,0.5]];portConstraint=eastwest;rounded=0;glass=0;sketch=0;fontColor=#1D3557;swimlaneLine=0;" parent="yh_sQvZe-Dtuo9pEbm0h-1" vertex="1">
          <mxGeometry y="94" width="200" height="26" as="geometry" />
        </mxCell>
        <mxCell id="yh_sQvZe-Dtuo9pEbm0h-7" value="bill" style="swimlane;fontStyle=1;align=center;verticalAlign=top;childLayout=stackLayout;horizontal=1;startSize=26;horizontalStack=0;resizeParent=1;resizeParentMax=0;resizeLast=0;collapsible=1;marginBottom=0;rounded=1;glass=0;sketch=0;fillColor=#dae8fc;strokeColor=#6c8ebf;swimlaneLine=0;" parent="1" vertex="1">
          <mxGeometry x="430" y="1288" width="200" height="256" as="geometry" />
        </mxCell>
        <mxCell id="yh_sQvZe-Dtuo9pEbm0h-8" value="+ id: ObjectId" style="text;strokeColor=none;fillColor=none;align=left;verticalAlign=top;spacingLeft=4;spacingRight=4;overflow=hidden;rotatable=0;points=[[0,0.5],[1,0.5]];portConstraint=eastwest;rounded=0;glass=0;sketch=0;fontColor=#1D3557;swimlaneLine=0;" parent="yh_sQvZe-Dtuo9pEbm0h-7" vertex="1">
          <mxGeometry y="26" width="200" height="26" as="geometry" />
        </mxCell>
        <mxCell id="yh_sQvZe-Dtuo9pEbm0h-9" value="" style="line;strokeWidth=1;fillColor=none;align=left;verticalAlign=middle;spacingTop=-1;spacingLeft=3;spacingRight=3;rotatable=0;labelPosition=right;points=[];portConstraint=eastwest;rounded=0;glass=0;sketch=0;labelBackgroundColor=#F1FAEE;strokeColor=#457B9D;fontColor=#1D3557;swimlaneLine=0;" parent="yh_sQvZe-Dtuo9pEbm0h-7" vertex="1">
          <mxGeometry y="52" width="200" height="8" as="geometry" />
        </mxCell>
        <mxCell id="yh_sQvZe-Dtuo9pEbm0h-10" value="+ creatorId: ObjectId" style="text;strokeColor=none;fillColor=none;align=left;verticalAlign=top;spacingLeft=4;spacingRight=4;overflow=hidden;rotatable=0;points=[[0,0.5],[1,0.5]];portConstraint=eastwest;rounded=0;glass=0;sketch=0;fontColor=#1D3557;swimlaneLine=0;" parent="yh_sQvZe-Dtuo9pEbm0h-7" vertex="1">
          <mxGeometry y="60" width="200" height="26" as="geometry" />
        </mxCell>
        <mxCell id="yh_sQvZe-Dtuo9pEbm0h-11" value="" style="line;strokeWidth=1;fillColor=none;align=left;verticalAlign=middle;spacingTop=-1;spacingLeft=3;spacingRight=3;rotatable=0;labelPosition=right;points=[];portConstraint=eastwest;rounded=1;glass=0;sketch=0;labelBackgroundColor=#F1FAEE;strokeColor=#457B9D;fontColor=#1D3557;swimlaneLine=0;" parent="yh_sQvZe-Dtuo9pEbm0h-7" vertex="1">
          <mxGeometry y="86" width="200" height="8" as="geometry" />
        </mxCell>
        <mxCell id="yh_sQvZe-Dtuo9pEbm0h-12" value="+ description: String" style="text;strokeColor=none;fillColor=none;align=left;verticalAlign=top;spacingLeft=4;spacingRight=4;overflow=hidden;rotatable=0;points=[[0,0.5],[1,0.5]];portConstraint=eastwest;rounded=0;glass=0;sketch=0;fontColor=#1D3557;swimlaneLine=0;" parent="yh_sQvZe-Dtuo9pEbm0h-7" vertex="1">
          <mxGeometry y="94" width="200" height="26" as="geometry" />
        </mxCell>
        <mxCell id="yh_sQvZe-Dtuo9pEbm0h-13" value="" style="line;strokeWidth=1;fillColor=none;align=left;verticalAlign=middle;spacingTop=-1;spacingLeft=3;spacingRight=3;rotatable=0;labelPosition=right;points=[];portConstraint=eastwest;rounded=1;glass=0;sketch=0;labelBackgroundColor=#F1FAEE;strokeColor=#457B9D;fontColor=#1D3557;swimlaneLine=0;" parent="yh_sQvZe-Dtuo9pEbm0h-7" vertex="1">
          <mxGeometry y="120" width="200" height="8" as="geometry" />
        </mxCell>
        <mxCell id="yh_sQvZe-Dtuo9pEbm0h-14" value="+ amount: String" style="text;strokeColor=none;fillColor=none;align=left;verticalAlign=top;spacingLeft=4;spacingRight=4;overflow=hidden;rotatable=0;points=[[0,0.5],[1,0.5]];portConstraint=eastwest;rounded=0;glass=0;sketch=0;fontColor=#1D3557;swimlaneLine=0;" parent="yh_sQvZe-Dtuo9pEbm0h-7" vertex="1">
          <mxGeometry y="128" width="200" height="26" as="geometry" />
        </mxCell>
        <mxCell id="yh_sQvZe-Dtuo9pEbm0h-15" value="" style="line;strokeWidth=1;fillColor=none;align=left;verticalAlign=middle;spacingTop=-1;spacingLeft=3;spacingRight=3;rotatable=0;labelPosition=right;points=[];portConstraint=eastwest;rounded=1;glass=0;sketch=0;labelBackgroundColor=#F1FAEE;strokeColor=#457B9D;fontColor=#1D3557;swimlaneLine=0;" parent="yh_sQvZe-Dtuo9pEbm0h-7" vertex="1">
          <mxGeometry y="154" width="200" height="8" as="geometry" />
        </mxCell>
        <mxCell id="yh_sQvZe-Dtuo9pEbm0h-16" value="+ status: String" style="text;strokeColor=none;fillColor=none;align=left;verticalAlign=top;spacingLeft=4;spacingRight=4;overflow=hidden;rotatable=0;points=[[0,0.5],[1,0.5]];portConstraint=eastwest;rounded=0;glass=0;sketch=0;fontColor=#1D3557;swimlaneLine=0;" parent="yh_sQvZe-Dtuo9pEbm0h-7" vertex="1">
          <mxGeometry y="162" width="200" height="26" as="geometry" />
        </mxCell>
        <mxCell id="yh_sQvZe-Dtuo9pEbm0h-17" value="" style="line;strokeWidth=1;fillColor=none;align=left;verticalAlign=middle;spacingTop=-1;spacingLeft=3;spacingRight=3;rotatable=0;labelPosition=right;points=[];portConstraint=eastwest;rounded=1;glass=0;sketch=0;labelBackgroundColor=#F1FAEE;strokeColor=#457B9D;fontColor=#1D3557;swimlaneLine=0;" parent="yh_sQvZe-Dtuo9pEbm0h-7" vertex="1">
          <mxGeometry y="188" width="200" height="8" as="geometry" />
        </mxCell>
        <mxCell id="yh_sQvZe-Dtuo9pEbm0h-18" value="+ method: String" style="text;strokeColor=none;fillColor=none;align=left;verticalAlign=top;spacingLeft=4;spacingRight=4;overflow=hidden;rotatable=0;points=[[0,0.5],[1,0.5]];portConstraint=eastwest;rounded=0;glass=0;sketch=0;fontColor=#1D3557;swimlaneLine=0;" parent="yh_sQvZe-Dtuo9pEbm0h-7" vertex="1">
          <mxGeometry y="196" width="200" height="26" as="geometry" />
        </mxCell>
        <mxCell id="yh_sQvZe-Dtuo9pEbm0h-19" value="" style="line;strokeWidth=1;fillColor=none;align=left;verticalAlign=middle;spacingTop=-1;spacingLeft=3;spacingRight=3;rotatable=0;labelPosition=right;points=[];portConstraint=eastwest;rounded=1;glass=0;sketch=0;labelBackgroundColor=#F1FAEE;strokeColor=#457B9D;fontColor=#1D3557;swimlaneLine=0;" parent="yh_sQvZe-Dtuo9pEbm0h-7" vertex="1">
          <mxGeometry y="222" width="200" height="8" as="geometry" />
        </mxCell>
        <mxCell id="yh_sQvZe-Dtuo9pEbm0h-20" value="+ transactionId: String" style="text;strokeColor=none;fillColor=none;align=left;verticalAlign=top;spacingLeft=4;spacingRight=4;overflow=hidden;rotatable=0;points=[[0,0.5],[1,0.5]];portConstraint=eastwest;rounded=0;glass=0;sketch=0;fontColor=#1D3557;swimlaneLine=0;" parent="yh_sQvZe-Dtuo9pEbm0h-7" vertex="1">
          <mxGeometry y="230" width="200" height="26" as="geometry" />
        </mxCell>
        <mxCell id="yh_sQvZe-Dtuo9pEbm0h-21" value="assignment" style="swimlane;fontStyle=1;align=center;verticalAlign=top;childLayout=stackLayout;horizontal=1;startSize=26;horizontalStack=0;resizeParent=1;resizeParentMax=0;resizeLast=0;collapsible=1;marginBottom=0;rounded=1;glass=0;sketch=0;fillColor=#dae8fc;strokeColor=#6c8ebf;swimlaneLine=0;" parent="1" vertex="1">
          <mxGeometry x="70" y="40" width="200" height="494" as="geometry">
            <mxRectangle x="90" y="231" width="110" height="30" as="alternateBounds" />
          </mxGeometry>
        </mxCell>
        <mxCell id="yh_sQvZe-Dtuo9pEbm0h-22" value="+ id: ObjectId" style="text;strokeColor=none;fillColor=none;align=left;verticalAlign=top;spacingLeft=4;spacingRight=4;overflow=hidden;rotatable=0;points=[[0,0.5],[1,0.5]];portConstraint=eastwest;rounded=1;glass=0;sketch=0;fontColor=#1D3557;swimlaneLine=0;" parent="yh_sQvZe-Dtuo9pEbm0h-21" vertex="1">
          <mxGeometry y="26" width="200" height="26" as="geometry" />
        </mxCell>
        <mxCell id="yh_sQvZe-Dtuo9pEbm0h-23" value="" style="line;strokeWidth=1;fillColor=none;align=left;verticalAlign=middle;spacingTop=-1;spacingLeft=3;spacingRight=3;rotatable=0;labelPosition=right;points=[];portConstraint=eastwest;rounded=1;glass=0;sketch=0;labelBackgroundColor=#F1FAEE;strokeColor=#457B9D;fontColor=#1D3557;swimlaneLine=0;" parent="yh_sQvZe-Dtuo9pEbm0h-21" vertex="1">
          <mxGeometry y="52" width="200" height="8" as="geometry" />
        </mxCell>
        <mxCell id="yh_sQvZe-Dtuo9pEbm0h-24" value="+ name: String" style="text;strokeColor=none;fillColor=none;align=left;verticalAlign=top;spacingLeft=4;spacingRight=4;overflow=hidden;rotatable=0;points=[[0,0.5],[1,0.5]];portConstraint=eastwest;rounded=1;glass=0;sketch=0;fontColor=#1D3557;swimlaneLine=0;" parent="yh_sQvZe-Dtuo9pEbm0h-21" vertex="1">
          <mxGeometry y="60" width="200" height="26" as="geometry" />
        </mxCell>
        <mxCell id="yh_sQvZe-Dtuo9pEbm0h-25" value="" style="line;strokeWidth=1;fillColor=none;align=left;verticalAlign=middle;spacingTop=-1;spacingLeft=3;spacingRight=3;rotatable=0;labelPosition=right;points=[];portConstraint=eastwest;rounded=1;glass=0;sketch=0;labelBackgroundColor=#F1FAEE;strokeColor=#457B9D;fontColor=#1D3557;swimlaneLine=0;" parent="yh_sQvZe-Dtuo9pEbm0h-21" vertex="1">
          <mxGeometry y="86" width="200" height="8" as="geometry" />
        </mxCell>
        <mxCell id="yh_sQvZe-Dtuo9pEbm0h-26" value="+ content: String" style="text;strokeColor=none;fillColor=none;align=left;verticalAlign=top;spacingLeft=4;spacingRight=4;overflow=hidden;rotatable=0;points=[[0,0.5],[1,0.5]];portConstraint=eastwest;rounded=1;glass=0;sketch=0;fontColor=#1D3557;swimlaneLine=0;" parent="yh_sQvZe-Dtuo9pEbm0h-21" vertex="1">
          <mxGeometry y="94" width="200" height="26" as="geometry" />
        </mxCell>
        <mxCell id="yh_sQvZe-Dtuo9pEbm0h-27" value="" style="line;strokeWidth=1;fillColor=none;align=left;verticalAlign=middle;spacingTop=-1;spacingLeft=3;spacingRight=3;rotatable=0;labelPosition=right;points=[];portConstraint=eastwest;rounded=1;glass=0;sketch=0;labelBackgroundColor=#F1FAEE;strokeColor=#457B9D;fontColor=#1D3557;swimlaneLine=0;" parent="yh_sQvZe-Dtuo9pEbm0h-21" vertex="1">
          <mxGeometry y="120" width="200" height="8" as="geometry" />
        </mxCell>
        <mxCell id="yh_sQvZe-Dtuo9pEbm0h-28" value="+ creatorId: String" style="text;strokeColor=none;fillColor=none;align=left;verticalAlign=top;spacingLeft=4;spacingRight=4;overflow=hidden;rotatable=0;points=[[0,0.5],[1,0.5]];portConstraint=eastwest;rounded=1;glass=0;sketch=0;fontColor=#1D3557;swimlaneLine=0;" parent="yh_sQvZe-Dtuo9pEbm0h-21" vertex="1">
          <mxGeometry y="128" width="200" height="26" as="geometry" />
        </mxCell>
        <mxCell id="yh_sQvZe-Dtuo9pEbm0h-29" value="" style="line;strokeWidth=1;fillColor=none;align=left;verticalAlign=middle;spacingTop=-1;spacingLeft=3;spacingRight=3;rotatable=0;labelPosition=right;points=[];portConstraint=eastwest;rounded=1;glass=0;sketch=0;labelBackgroundColor=#F1FAEE;strokeColor=#457B9D;fontColor=#1D3557;swimlaneLine=0;" parent="yh_sQvZe-Dtuo9pEbm0h-21" vertex="1">
          <mxGeometry y="154" width="200" height="8" as="geometry" />
        </mxCell>
        <mxCell id="yh_sQvZe-Dtuo9pEbm0h-30" value="+ startTime: Date" style="text;strokeColor=none;fillColor=none;align=left;verticalAlign=top;spacingLeft=4;spacingRight=4;overflow=hidden;rotatable=0;points=[[0,0.5],[1,0.5]];portConstraint=eastwest;rounded=1;glass=0;sketch=0;fontColor=#1D3557;swimlaneLine=0;" parent="yh_sQvZe-Dtuo9pEbm0h-21" vertex="1">
          <mxGeometry y="162" width="200" height="26" as="geometry" />
        </mxCell>
        <mxCell id="yh_sQvZe-Dtuo9pEbm0h-31" value="" style="line;strokeWidth=1;fillColor=none;align=left;verticalAlign=middle;spacingTop=-1;spacingLeft=3;spacingRight=3;rotatable=0;labelPosition=right;points=[];portConstraint=eastwest;rounded=1;glass=0;sketch=0;labelBackgroundColor=#F1FAEE;strokeColor=#457B9D;fontColor=#1D3557;swimlaneLine=0;" parent="yh_sQvZe-Dtuo9pEbm0h-21" vertex="1">
          <mxGeometry y="188" width="200" height="8" as="geometry" />
        </mxCell>
        <mxCell id="yh_sQvZe-Dtuo9pEbm0h-32" value="+ endTime: Date" style="text;strokeColor=none;fillColor=none;align=left;verticalAlign=top;spacingLeft=4;spacingRight=4;overflow=hidden;rotatable=0;points=[[0,0.5],[1,0.5]];portConstraint=eastwest;rounded=1;glass=0;sketch=0;fontColor=#1D3557;swimlaneLine=0;" parent="yh_sQvZe-Dtuo9pEbm0h-21" vertex="1">
          <mxGeometry y="196" width="200" height="26" as="geometry" />
        </mxCell>
        <mxCell id="yh_sQvZe-Dtuo9pEbm0h-33" value="" style="line;strokeWidth=1;fillColor=none;align=left;verticalAlign=middle;spacingTop=-1;spacingLeft=3;spacingRight=3;rotatable=0;labelPosition=right;points=[];portConstraint=eastwest;rounded=1;glass=0;sketch=0;labelBackgroundColor=#F1FAEE;strokeColor=#457B9D;fontColor=#1D3557;swimlaneLine=0;" parent="yh_sQvZe-Dtuo9pEbm0h-21" vertex="1">
          <mxGeometry y="222" width="200" height="8" as="geometry" />
        </mxCell>
        <mxCell id="yh_sQvZe-Dtuo9pEbm0h-34" value="+ viewPoint: String" style="text;strokeColor=none;fillColor=none;align=left;verticalAlign=top;spacingLeft=4;spacingRight=4;overflow=hidden;rotatable=0;points=[[0,0.5],[1,0.5]];portConstraint=eastwest;rounded=1;glass=0;sketch=0;fontColor=#1D3557;swimlaneLine=0;" parent="yh_sQvZe-Dtuo9pEbm0h-21" vertex="1">
          <mxGeometry y="230" width="200" height="26" as="geometry" />
        </mxCell>
        <mxCell id="yh_sQvZe-Dtuo9pEbm0h-35" value="" style="line;strokeWidth=1;fillColor=none;align=left;verticalAlign=middle;spacingTop=-1;spacingLeft=3;spacingRight=3;rotatable=0;labelPosition=right;points=[];portConstraint=eastwest;rounded=1;glass=0;sketch=0;labelBackgroundColor=#F1FAEE;strokeColor=#457B9D;fontColor=#1D3557;swimlaneLine=0;" parent="yh_sQvZe-Dtuo9pEbm0h-21" vertex="1">
          <mxGeometry y="256" width="200" height="8" as="geometry" />
        </mxCell>
        <mxCell id="yh_sQvZe-Dtuo9pEbm0h-36" value="+ maxPoint: Number" style="text;strokeColor=none;fillColor=none;align=left;verticalAlign=top;spacingLeft=4;spacingRight=4;overflow=hidden;rotatable=0;points=[[0,0.5],[1,0.5]];portConstraint=eastwest;rounded=1;glass=0;sketch=0;fontColor=#1D3557;swimlaneLine=0;" parent="yh_sQvZe-Dtuo9pEbm0h-21" vertex="1">
          <mxGeometry y="264" width="200" height="26" as="geometry" />
        </mxCell>
        <mxCell id="yh_sQvZe-Dtuo9pEbm0h-37" value="" style="line;strokeWidth=1;fillColor=none;align=left;verticalAlign=middle;spacingTop=-1;spacingLeft=3;spacingRight=3;rotatable=0;labelPosition=right;points=[];portConstraint=eastwest;rounded=1;glass=0;sketch=0;labelBackgroundColor=#F1FAEE;strokeColor=#457B9D;fontColor=#1D3557;swimlaneLine=0;" parent="yh_sQvZe-Dtuo9pEbm0h-21" vertex="1">
          <mxGeometry y="290" width="200" height="8" as="geometry" />
        </mxCell>
        <mxCell id="yh_sQvZe-Dtuo9pEbm0h-38" value="+ courseId: ObjectId" style="text;strokeColor=none;fillColor=none;align=left;verticalAlign=top;spacingLeft=4;spacingRight=4;overflow=hidden;rotatable=0;points=[[0,0.5],[1,0.5]];portConstraint=eastwest;rounded=1;glass=0;sketch=0;fontColor=#1D3557;swimlaneLine=0;" parent="yh_sQvZe-Dtuo9pEbm0h-21" vertex="1">
          <mxGeometry y="298" width="200" height="26" as="geometry" />
        </mxCell>
        <mxCell id="yh_sQvZe-Dtuo9pEbm0h-39" value="" style="line;strokeWidth=1;fillColor=none;align=left;verticalAlign=middle;spacingTop=-1;spacingLeft=3;spacingRight=3;rotatable=0;labelPosition=right;points=[];portConstraint=eastwest;rounded=1;glass=0;sketch=0;labelBackgroundColor=#F1FAEE;strokeColor=#457B9D;fontColor=#1D3557;swimlaneLine=0;" parent="yh_sQvZe-Dtuo9pEbm0h-21" vertex="1">
          <mxGeometry y="324" width="200" height="8" as="geometry" />
        </mxCell>
        <mxCell id="yh_sQvZe-Dtuo9pEbm0h-40" value="+ slug: Number" style="text;strokeColor=none;fillColor=none;align=left;verticalAlign=top;spacingLeft=4;spacingRight=4;overflow=hidden;rotatable=0;points=[[0,0.5],[1,0.5]];portConstraint=eastwest;rounded=1;glass=0;sketch=0;fontColor=#1D3557;swimlaneLine=0;" parent="yh_sQvZe-Dtuo9pEbm0h-21" vertex="1">
          <mxGeometry y="332" width="200" height="26" as="geometry" />
        </mxCell>
        <mxCell id="yh_sQvZe-Dtuo9pEbm0h-41" value="" style="line;strokeWidth=1;fillColor=none;align=left;verticalAlign=middle;spacingTop=-1;spacingLeft=3;spacingRight=3;rotatable=0;labelPosition=right;points=[];portConstraint=eastwest;rounded=1;glass=0;sketch=0;labelBackgroundColor=#F1FAEE;strokeColor=#457B9D;fontColor=#1D3557;swimlaneLine=0;" parent="yh_sQvZe-Dtuo9pEbm0h-21" vertex="1">
          <mxGeometry y="358" width="200" height="8" as="geometry" />
        </mxCell>
        <mxCell id="yh_sQvZe-Dtuo9pEbm0h-42" value="+ allowResubmit: Boolean" style="text;strokeColor=none;fillColor=none;align=left;verticalAlign=top;spacingLeft=4;spacingRight=4;overflow=hidden;rotatable=0;points=[[0,0.5],[1,0.5]];portConstraint=eastwest;rounded=1;glass=0;sketch=0;fontColor=#1D3557;swimlaneLine=0;" parent="yh_sQvZe-Dtuo9pEbm0h-21" vertex="1">
          <mxGeometry y="366" width="200" height="26" as="geometry" />
        </mxCell>
        <mxCell id="yh_sQvZe-Dtuo9pEbm0h-43" value="" style="line;strokeWidth=1;fillColor=none;align=left;verticalAlign=middle;spacingTop=-1;spacingLeft=3;spacingRight=3;rotatable=0;labelPosition=right;points=[];portConstraint=eastwest;rounded=1;glass=0;sketch=0;labelBackgroundColor=#F1FAEE;strokeColor=#457B9D;fontColor=#1D3557;swimlaneLine=0;" parent="yh_sQvZe-Dtuo9pEbm0h-21" vertex="1">
          <mxGeometry y="392" width="200" height="8" as="geometry" />
        </mxCell>
        <mxCell id="yh_sQvZe-Dtuo9pEbm0h-44" value="+ allowSubmitLate: Boolean" style="text;strokeColor=none;fillColor=none;align=left;verticalAlign=top;spacingLeft=4;spacingRight=4;overflow=hidden;rotatable=0;points=[[0,0.5],[1,0.5]];portConstraint=eastwest;rounded=1;glass=0;sketch=0;fontColor=#1D3557;swimlaneLine=0;" parent="yh_sQvZe-Dtuo9pEbm0h-21" vertex="1">
          <mxGeometry y="400" width="200" height="26" as="geometry" />
        </mxCell>
        <mxCell id="yh_sQvZe-Dtuo9pEbm0h-45" value="" style="line;strokeWidth=1;fillColor=none;align=left;verticalAlign=middle;spacingTop=-1;spacingLeft=3;spacingRight=3;rotatable=0;labelPosition=right;points=[];portConstraint=eastwest;rounded=1;glass=0;sketch=0;labelBackgroundColor=#F1FAEE;strokeColor=#457B9D;fontColor=#1D3557;swimlaneLine=0;" parent="yh_sQvZe-Dtuo9pEbm0h-21" vertex="1">
          <mxGeometry y="426" width="200" height="8" as="geometry" />
        </mxCell>
        <mxCell id="yh_sQvZe-Dtuo9pEbm0h-46" value="+ file: String" style="text;strokeColor=none;fillColor=none;align=left;verticalAlign=top;spacingLeft=4;spacingRight=4;overflow=hidden;rotatable=0;points=[[0,0.5],[1,0.5]];portConstraint=eastwest;rounded=1;glass=0;sketch=0;fontColor=#1D3557;swimlaneLine=0;" parent="yh_sQvZe-Dtuo9pEbm0h-21" vertex="1">
          <mxGeometry y="434" width="200" height="26" as="geometry" />
        </mxCell>
        <mxCell id="yh_sQvZe-Dtuo9pEbm0h-47" value="" style="line;strokeWidth=1;fillColor=none;align=left;verticalAlign=middle;spacingTop=-1;spacingLeft=3;spacingRight=3;rotatable=0;labelPosition=right;points=[];portConstraint=eastwest;rounded=1;glass=0;sketch=0;labelBackgroundColor=#F1FAEE;strokeColor=#457B9D;fontColor=#1D3557;swimlaneLine=0;" parent="yh_sQvZe-Dtuo9pEbm0h-21" vertex="1">
          <mxGeometry y="460" width="200" height="8" as="geometry" />
        </mxCell>
        <mxCell id="yh_sQvZe-Dtuo9pEbm0h-48" value="+ status: String" style="text;strokeColor=none;fillColor=none;align=left;verticalAlign=top;spacingLeft=4;spacingRight=4;overflow=hidden;rotatable=0;points=[[0,0.5],[1,0.5]];portConstraint=eastwest;rounded=1;glass=0;sketch=0;fontColor=#1D3557;swimlaneLine=0;" parent="yh_sQvZe-Dtuo9pEbm0h-21" vertex="1">
          <mxGeometry y="468" width="200" height="26" as="geometry" />
        </mxCell>
        <mxCell id="yh_sQvZe-Dtuo9pEbm0h-49" value="course" style="swimlane;fontStyle=1;align=center;verticalAlign=top;childLayout=stackLayout;horizontal=1;startSize=26;horizontalStack=0;resizeParent=1;resizeParentMax=0;resizeLast=0;collapsible=1;marginBottom=0;rounded=1;glass=0;sketch=0;fillColor=#dae8fc;strokeColor=#6c8ebf;swimlaneLine=0;" parent="1" vertex="1">
          <mxGeometry x="430" y="40" width="200" height="460" as="geometry" />
        </mxCell>
        <mxCell id="yh_sQvZe-Dtuo9pEbm0h-50" value="+ id: ObjectId" style="text;strokeColor=none;fillColor=none;align=left;verticalAlign=top;spacingLeft=4;spacingRight=4;overflow=hidden;rotatable=0;points=[[0,0.5],[1,0.5]];portConstraint=eastwest;rounded=1;glass=0;sketch=0;fontColor=#1D3557;swimlaneLine=0;" parent="yh_sQvZe-Dtuo9pEbm0h-49" vertex="1">
          <mxGeometry y="26" width="200" height="26" as="geometry" />
        </mxCell>
        <mxCell id="yh_sQvZe-Dtuo9pEbm0h-51" value="" style="line;strokeWidth=1;fillColor=none;align=left;verticalAlign=middle;spacingTop=-1;spacingLeft=3;spacingRight=3;rotatable=0;labelPosition=right;points=[];portConstraint=eastwest;rounded=1;glass=0;sketch=0;labelBackgroundColor=#F1FAEE;strokeColor=#457B9D;fontColor=#1D3557;swimlaneLine=0;" parent="yh_sQvZe-Dtuo9pEbm0h-49" vertex="1">
          <mxGeometry y="52" width="200" height="8" as="geometry" />
        </mxCell>
        <mxCell id="yh_sQvZe-Dtuo9pEbm0h-52" value="+ name: String" style="text;strokeColor=none;fillColor=none;align=left;verticalAlign=top;spacingLeft=4;spacingRight=4;overflow=hidden;rotatable=0;points=[[0,0.5],[1,0.5]];portConstraint=eastwest;rounded=1;glass=0;sketch=0;fontColor=#1D3557;swimlaneLine=0;" parent="yh_sQvZe-Dtuo9pEbm0h-49" vertex="1">
          <mxGeometry y="60" width="200" height="26" as="geometry" />
        </mxCell>
        <mxCell id="yh_sQvZe-Dtuo9pEbm0h-53" value="" style="line;strokeWidth=1;fillColor=none;align=left;verticalAlign=middle;spacingTop=-1;spacingLeft=3;spacingRight=3;rotatable=0;labelPosition=right;points=[];portConstraint=eastwest;rounded=1;glass=0;sketch=0;labelBackgroundColor=#F1FAEE;strokeColor=#457B9D;fontColor=#1D3557;swimlaneLine=0;" parent="yh_sQvZe-Dtuo9pEbm0h-49" vertex="1">
          <mxGeometry y="86" width="200" height="8" as="geometry" />
        </mxCell>
        <mxCell id="yh_sQvZe-Dtuo9pEbm0h-54" value="+ description: String" style="text;strokeColor=none;fillColor=none;align=left;verticalAlign=top;spacingLeft=4;spacingRight=4;overflow=hidden;rotatable=0;points=[[0,0.5],[1,0.5]];portConstraint=eastwest;rounded=1;glass=0;sketch=0;fontColor=#1D3557;swimlaneLine=0;" parent="yh_sQvZe-Dtuo9pEbm0h-49" vertex="1">
          <mxGeometry y="94" width="200" height="26" as="geometry" />
        </mxCell>
        <mxCell id="yh_sQvZe-Dtuo9pEbm0h-55" value="" style="line;strokeWidth=1;fillColor=none;align=left;verticalAlign=middle;spacingTop=-1;spacingLeft=3;spacingRight=3;rotatable=0;labelPosition=right;points=[];portConstraint=eastwest;rounded=1;glass=0;sketch=0;labelBackgroundColor=#F1FAEE;strokeColor=#457B9D;fontColor=#1D3557;swimlaneLine=0;" parent="yh_sQvZe-Dtuo9pEbm0h-49" vertex="1">
          <mxGeometry y="120" width="200" height="8" as="geometry" />
        </mxCell>
        <mxCell id="yh_sQvZe-Dtuo9pEbm0h-56" value="+ startTime: Date" style="text;strokeColor=none;fillColor=none;align=left;verticalAlign=top;spacingLeft=4;spacingRight=4;overflow=hidden;rotatable=0;points=[[0,0.5],[1,0.5]];portConstraint=eastwest;rounded=1;glass=0;sketch=0;fontColor=#1D3557;swimlaneLine=0;" parent="yh_sQvZe-Dtuo9pEbm0h-49" vertex="1">
          <mxGeometry y="128" width="200" height="26" as="geometry" />
        </mxCell>
        <mxCell id="yh_sQvZe-Dtuo9pEbm0h-57" value="" style="line;strokeWidth=1;fillColor=none;align=left;verticalAlign=middle;spacingTop=-1;spacingLeft=3;spacingRight=3;rotatable=0;labelPosition=right;points=[];portConstraint=eastwest;rounded=1;glass=0;sketch=0;labelBackgroundColor=#F1FAEE;strokeColor=#457B9D;fontColor=#1D3557;swimlaneLine=0;" parent="yh_sQvZe-Dtuo9pEbm0h-49" vertex="1">
          <mxGeometry y="154" width="200" height="8" as="geometry" />
        </mxCell>
        <mxCell id="yh_sQvZe-Dtuo9pEbm0h-58" value="+ endTime: Date" style="text;strokeColor=none;fillColor=none;align=left;verticalAlign=top;spacingLeft=4;spacingRight=4;overflow=hidden;rotatable=0;points=[[0,0.5],[1,0.5]];portConstraint=eastwest;rounded=1;glass=0;sketch=0;fontColor=#1D3557;swimlaneLine=0;" parent="yh_sQvZe-Dtuo9pEbm0h-49" vertex="1">
          <mxGeometry y="162" width="200" height="26" as="geometry" />
        </mxCell>
        <mxCell id="yh_sQvZe-Dtuo9pEbm0h-59" value="" style="line;strokeWidth=1;fillColor=none;align=left;verticalAlign=middle;spacingTop=-1;spacingLeft=3;spacingRight=3;rotatable=0;labelPosition=right;points=[];portConstraint=eastwest;rounded=1;glass=0;sketch=0;labelBackgroundColor=#F1FAEE;strokeColor=#457B9D;fontColor=#1D3557;swimlaneLine=0;" parent="yh_sQvZe-Dtuo9pEbm0h-49" vertex="1">
          <mxGeometry y="188" width="200" height="8" as="geometry" />
        </mxCell>
        <mxCell id="yh_sQvZe-Dtuo9pEbm0h-60" value="+ creatorId: ObjectId" style="text;strokeColor=none;fillColor=none;align=left;verticalAlign=top;spacingLeft=4;spacingRight=4;overflow=hidden;rotatable=0;points=[[0,0.5],[1,0.5]];portConstraint=eastwest;rounded=1;glass=0;sketch=0;fontColor=#1D3557;swimlaneLine=0;" parent="yh_sQvZe-Dtuo9pEbm0h-49" vertex="1">
          <mxGeometry y="196" width="200" height="26" as="geometry" />
        </mxCell>
        <mxCell id="yh_sQvZe-Dtuo9pEbm0h-61" value="" style="line;strokeWidth=1;fillColor=none;align=left;verticalAlign=middle;spacingTop=-1;spacingLeft=3;spacingRight=3;rotatable=0;labelPosition=right;points=[];portConstraint=eastwest;rounded=1;glass=0;sketch=0;labelBackgroundColor=#F1FAEE;strokeColor=#457B9D;fontColor=#1D3557;swimlaneLine=0;" parent="yh_sQvZe-Dtuo9pEbm0h-49" vertex="1">
          <mxGeometry y="222" width="200" height="8" as="geometry" />
        </mxCell>
        <mxCell id="yh_sQvZe-Dtuo9pEbm0h-62" value="+ slug: String" style="text;strokeColor=none;fillColor=none;align=left;verticalAlign=top;spacingLeft=4;spacingRight=4;overflow=hidden;rotatable=0;points=[[0,0.5],[1,0.5]];portConstraint=eastwest;rounded=1;glass=0;sketch=0;fontColor=#1D3557;swimlaneLine=0;" parent="yh_sQvZe-Dtuo9pEbm0h-49" vertex="1">
          <mxGeometry y="230" width="200" height="26" as="geometry" />
        </mxCell>
        <mxCell id="yh_sQvZe-Dtuo9pEbm0h-63" value="" style="line;strokeWidth=1;fillColor=none;align=left;verticalAlign=middle;spacingTop=-1;spacingLeft=3;spacingRight=3;rotatable=0;labelPosition=right;points=[];portConstraint=eastwest;rounded=1;glass=0;sketch=0;labelBackgroundColor=#F1FAEE;strokeColor=#457B9D;fontColor=#1D3557;swimlaneLine=0;" parent="yh_sQvZe-Dtuo9pEbm0h-49" vertex="1">
          <mxGeometry y="256" width="200" height="8" as="geometry" />
        </mxCell>
        <mxCell id="yh_sQvZe-Dtuo9pEbm0h-64" value="+ exams: ArrayObjectId" style="text;strokeColor=none;fillColor=none;align=left;verticalAlign=top;spacingLeft=4;spacingRight=4;overflow=hidden;rotatable=0;points=[[0,0.5],[1,0.5]];portConstraint=eastwest;rounded=1;glass=0;sketch=0;fontColor=#1D3557;swimlaneLine=0;" parent="yh_sQvZe-Dtuo9pEbm0h-49" vertex="1">
          <mxGeometry y="264" width="200" height="26" as="geometry" />
        </mxCell>
        <mxCell id="yh_sQvZe-Dtuo9pEbm0h-65" value="" style="line;strokeWidth=1;fillColor=none;align=left;verticalAlign=middle;spacingTop=-1;spacingLeft=3;spacingRight=3;rotatable=0;labelPosition=right;points=[];portConstraint=eastwest;rounded=1;glass=0;sketch=0;labelBackgroundColor=#F1FAEE;strokeColor=#457B9D;fontColor=#1D3557;swimlaneLine=0;" parent="yh_sQvZe-Dtuo9pEbm0h-49" vertex="1">
          <mxGeometry y="290" width="200" height="8" as="geometry" />
        </mxCell>
        <mxCell id="yh_sQvZe-Dtuo9pEbm0h-66" value="+ assignments: ArrayObjectId" style="text;strokeColor=none;fillColor=none;align=left;verticalAlign=top;spacingLeft=4;spacingRight=4;overflow=hidden;rotatable=0;points=[[0,0.5],[1,0.5]];portConstraint=eastwest;rounded=1;glass=0;sketch=0;fontColor=#1D3557;swimlaneLine=0;" parent="yh_sQvZe-Dtuo9pEbm0h-49" vertex="1">
          <mxGeometry y="298" width="200" height="26" as="geometry" />
        </mxCell>
        <mxCell id="yh_sQvZe-Dtuo9pEbm0h-67" value="" style="line;strokeWidth=1;fillColor=none;align=left;verticalAlign=middle;spacingTop=-1;spacingLeft=3;spacingRight=3;rotatable=0;labelPosition=right;points=[];portConstraint=eastwest;rounded=1;glass=0;sketch=0;labelBackgroundColor=#F1FAEE;strokeColor=#457B9D;fontColor=#1D3557;swimlaneLine=0;" parent="yh_sQvZe-Dtuo9pEbm0h-49" vertex="1">
          <mxGeometry y="324" width="200" height="8" as="geometry" />
        </mxCell>
        <mxCell id="yh_sQvZe-Dtuo9pEbm0h-68" value="+ students: ArrayObjectId" style="text;strokeColor=none;fillColor=none;align=left;verticalAlign=top;spacingLeft=4;spacingRight=4;overflow=hidden;rotatable=0;points=[[0,0.5],[1,0.5]];portConstraint=eastwest;rounded=1;glass=0;sketch=0;fontColor=#1D3557;swimlaneLine=0;" parent="yh_sQvZe-Dtuo9pEbm0h-49" vertex="1">
          <mxGeometry y="332" width="200" height="26" as="geometry" />
        </mxCell>
        <mxCell id="yh_sQvZe-Dtuo9pEbm0h-69" value="" style="line;strokeWidth=1;fillColor=none;align=left;verticalAlign=middle;spacingTop=-1;spacingLeft=3;spacingRight=3;rotatable=0;labelPosition=right;points=[];portConstraint=eastwest;rounded=1;glass=0;sketch=0;labelBackgroundColor=#F1FAEE;strokeColor=#457B9D;fontColor=#1D3557;swimlaneLine=0;" parent="yh_sQvZe-Dtuo9pEbm0h-49" vertex="1">
          <mxGeometry y="358" width="200" height="8" as="geometry" />
        </mxCell>
        <mxCell id="yh_sQvZe-Dtuo9pEbm0h-70" value="+ status: String" style="text;strokeColor=none;fillColor=none;align=left;verticalAlign=top;spacingLeft=4;spacingRight=4;overflow=hidden;rotatable=0;points=[[0,0.5],[1,0.5]];portConstraint=eastwest;rounded=1;glass=0;sketch=0;fontColor=#1D3557;swimlaneLine=0;" parent="yh_sQvZe-Dtuo9pEbm0h-49" vertex="1">
          <mxGeometry y="366" width="200" height="26" as="geometry" />
        </mxCell>
        <mxCell id="yh_sQvZe-Dtuo9pEbm0h-71" value="" style="line;strokeWidth=1;fillColor=none;align=left;verticalAlign=middle;spacingTop=-1;spacingLeft=3;spacingRight=3;rotatable=0;labelPosition=right;points=[];portConstraint=eastwest;rounded=1;glass=0;sketch=0;labelBackgroundColor=#F1FAEE;strokeColor=#457B9D;fontColor=#1D3557;swimlaneLine=0;" parent="yh_sQvZe-Dtuo9pEbm0h-49" vertex="1">
          <mxGeometry y="392" width="200" height="8" as="geometry" />
        </mxCell>
        <mxCell id="yh_sQvZe-Dtuo9pEbm0h-72" value="+ image: String" style="text;strokeColor=none;fillColor=none;align=left;verticalAlign=top;spacingLeft=4;spacingRight=4;overflow=hidden;rotatable=0;points=[[0,0.5],[1,0.5]];portConstraint=eastwest;rounded=1;glass=0;sketch=0;fontColor=#1D3557;swimlaneLine=0;" parent="yh_sQvZe-Dtuo9pEbm0h-49" vertex="1">
          <mxGeometry y="400" width="200" height="26" as="geometry" />
        </mxCell>
        <mxCell id="yh_sQvZe-Dtuo9pEbm0h-73" value="" style="line;strokeWidth=1;fillColor=none;align=left;verticalAlign=middle;spacingTop=-1;spacingLeft=3;spacingRight=3;rotatable=0;labelPosition=right;points=[];portConstraint=eastwest;rounded=1;glass=0;sketch=0;labelBackgroundColor=#F1FAEE;strokeColor=#457B9D;fontColor=#1D3557;swimlaneLine=0;" parent="yh_sQvZe-Dtuo9pEbm0h-49" vertex="1">
          <mxGeometry y="426" width="200" height="8" as="geometry" />
        </mxCell>
        <mxCell id="yh_sQvZe-Dtuo9pEbm0h-74" value="+ pin: String" style="text;strokeColor=none;fillColor=none;align=left;verticalAlign=top;spacingLeft=4;spacingRight=4;overflow=hidden;rotatable=0;points=[[0,0.5],[1,0.5]];portConstraint=eastwest;rounded=1;glass=0;sketch=0;fontColor=#1D3557;swimlaneLine=0;" parent="yh_sQvZe-Dtuo9pEbm0h-49" vertex="1">
          <mxGeometry y="434" width="200" height="26" as="geometry" />
        </mxCell>
        <mxCell id="yh_sQvZe-Dtuo9pEbm0h-75" value="exam" style="swimlane;fontStyle=1;align=center;verticalAlign=top;childLayout=stackLayout;horizontal=1;startSize=26;horizontalStack=0;resizeParent=1;resizeParentMax=0;resizeLast=0;collapsible=1;marginBottom=0;rounded=1;glass=0;sketch=0;fillColor=#dae8fc;strokeColor=#6c8ebf;swimlaneLine=0;" parent="1" vertex="1">
          <mxGeometry x="710" y="40" width="200" height="630" as="geometry" />
        </mxCell>
        <mxCell id="yh_sQvZe-Dtuo9pEbm0h-76" value="+ id: String" style="text;strokeColor=none;fillColor=none;align=left;verticalAlign=top;spacingLeft=4;spacingRight=4;overflow=hidden;rotatable=0;points=[[0,0.5],[1,0.5]];portConstraint=eastwest;rounded=1;glass=0;sketch=0;fontColor=#1D3557;swimlaneLine=0;" parent="yh_sQvZe-Dtuo9pEbm0h-75" vertex="1">
          <mxGeometry y="26" width="200" height="26" as="geometry" />
        </mxCell>
        <mxCell id="yh_sQvZe-Dtuo9pEbm0h-77" value="" style="line;strokeWidth=1;fillColor=none;align=left;verticalAlign=middle;spacingTop=-1;spacingLeft=3;spacingRight=3;rotatable=0;labelPosition=right;points=[];portConstraint=eastwest;rounded=1;glass=0;sketch=0;labelBackgroundColor=#F1FAEE;strokeColor=#457B9D;fontColor=#1D3557;swimlaneLine=0;" parent="yh_sQvZe-Dtuo9pEbm0h-75" vertex="1">
          <mxGeometry y="52" width="200" height="8" as="geometry" />
        </mxCell>
        <mxCell id="yh_sQvZe-Dtuo9pEbm0h-78" value="+ slug: Number" style="text;strokeColor=none;fillColor=none;align=left;verticalAlign=top;spacingLeft=4;spacingRight=4;overflow=hidden;rotatable=0;points=[[0,0.5],[1,0.5]];portConstraint=eastwest;rounded=1;glass=0;sketch=0;fontColor=#1D3557;swimlaneLine=0;" parent="yh_sQvZe-Dtuo9pEbm0h-75" vertex="1">
          <mxGeometry y="60" width="200" height="26" as="geometry" />
        </mxCell>
        <mxCell id="yh_sQvZe-Dtuo9pEbm0h-79" value="" style="line;strokeWidth=1;fillColor=none;align=left;verticalAlign=middle;spacingTop=-1;spacingLeft=3;spacingRight=3;rotatable=0;labelPosition=right;points=[];portConstraint=eastwest;rounded=1;glass=0;sketch=0;labelBackgroundColor=#F1FAEE;strokeColor=#457B9D;fontColor=#1D3557;swimlaneLine=0;" parent="yh_sQvZe-Dtuo9pEbm0h-75" vertex="1">
          <mxGeometry y="86" width="200" height="8" as="geometry" />
        </mxCell>
        <mxCell id="yh_sQvZe-Dtuo9pEbm0h-80" value="+ name: String" style="text;strokeColor=none;fillColor=none;align=left;verticalAlign=top;spacingLeft=4;spacingRight=4;overflow=hidden;rotatable=0;points=[[0,0.5],[1,0.5]];portConstraint=eastwest;rounded=1;glass=0;sketch=0;fontColor=#1D3557;swimlaneLine=0;" parent="yh_sQvZe-Dtuo9pEbm0h-75" vertex="1">
          <mxGeometry y="94" width="200" height="26" as="geometry" />
        </mxCell>
        <mxCell id="yh_sQvZe-Dtuo9pEbm0h-81" value="" style="line;strokeWidth=1;fillColor=none;align=left;verticalAlign=middle;spacingTop=-1;spacingLeft=3;spacingRight=3;rotatable=0;labelPosition=right;points=[];portConstraint=eastwest;rounded=1;glass=0;sketch=0;labelBackgroundColor=#F1FAEE;strokeColor=#457B9D;fontColor=#1D3557;swimlaneLine=0;" parent="yh_sQvZe-Dtuo9pEbm0h-75" vertex="1">
          <mxGeometry y="120" width="200" height="8" as="geometry" />
        </mxCell>
        <mxCell id="yh_sQvZe-Dtuo9pEbm0h-82" value="+ description: String" style="text;strokeColor=none;fillColor=none;align=left;verticalAlign=top;spacingLeft=4;spacingRight=4;overflow=hidden;rotatable=0;points=[[0,0.5],[1,0.5]];portConstraint=eastwest;rounded=1;glass=0;sketch=0;fontColor=#1D3557;swimlaneLine=0;" parent="yh_sQvZe-Dtuo9pEbm0h-75" vertex="1">
          <mxGeometry y="128" width="200" height="26" as="geometry" />
        </mxCell>
        <mxCell id="yh_sQvZe-Dtuo9pEbm0h-83" value="" style="line;strokeWidth=1;fillColor=none;align=left;verticalAlign=middle;spacingTop=-1;spacingLeft=3;spacingRight=3;rotatable=0;labelPosition=right;points=[];portConstraint=eastwest;rounded=1;glass=0;sketch=0;labelBackgroundColor=#F1FAEE;strokeColor=#457B9D;fontColor=#1D3557;swimlaneLine=0;" parent="yh_sQvZe-Dtuo9pEbm0h-75" vertex="1">
          <mxGeometry y="154" width="200" height="8" as="geometry" />
        </mxCell>
        <mxCell id="yh_sQvZe-Dtuo9pEbm0h-84" value="+ creatorId: ObjectId" style="text;strokeColor=none;fillColor=none;align=left;verticalAlign=top;spacingLeft=4;spacingRight=4;overflow=hidden;rotatable=0;points=[[0,0.5],[1,0.5]];portConstraint=eastwest;rounded=1;glass=0;sketch=0;fontColor=#1D3557;swimlaneLine=0;" parent="yh_sQvZe-Dtuo9pEbm0h-75" vertex="1">
          <mxGeometry y="162" width="200" height="26" as="geometry" />
        </mxCell>
        <mxCell id="yh_sQvZe-Dtuo9pEbm0h-85" value="" style="line;strokeWidth=1;fillColor=none;align=left;verticalAlign=middle;spacingTop=-1;spacingLeft=3;spacingRight=3;rotatable=0;labelPosition=right;points=[];portConstraint=eastwest;rounded=1;glass=0;sketch=0;labelBackgroundColor=#F1FAEE;strokeColor=#457B9D;fontColor=#1D3557;swimlaneLine=0;" parent="yh_sQvZe-Dtuo9pEbm0h-75" vertex="1">
          <mxGeometry y="188" width="200" height="8" as="geometry" />
        </mxCell>
        <mxCell id="yh_sQvZe-Dtuo9pEbm0h-86" value="+ pin: String" style="text;strokeColor=none;fillColor=none;align=left;verticalAlign=top;spacingLeft=4;spacingRight=4;overflow=hidden;rotatable=0;points=[[0,0.5],[1,0.5]];portConstraint=eastwest;rounded=1;glass=0;sketch=0;fontColor=#1D3557;swimlaneLine=0;" parent="yh_sQvZe-Dtuo9pEbm0h-75" vertex="1">
          <mxGeometry y="196" width="200" height="26" as="geometry" />
        </mxCell>
        <mxCell id="yh_sQvZe-Dtuo9pEbm0h-87" value="" style="line;strokeWidth=1;fillColor=none;align=left;verticalAlign=middle;spacingTop=-1;spacingLeft=3;spacingRight=3;rotatable=0;labelPosition=right;points=[];portConstraint=eastwest;rounded=1;glass=0;sketch=0;labelBackgroundColor=#F1FAEE;strokeColor=#457B9D;fontColor=#1D3557;swimlaneLine=0;" parent="yh_sQvZe-Dtuo9pEbm0h-75" vertex="1">
          <mxGeometry y="222" width="200" height="8" as="geometry" />
        </mxCell>
        <mxCell id="yh_sQvZe-Dtuo9pEbm0h-88" value="+ questions: ArrayObjectId" style="text;strokeColor=none;fillColor=none;align=left;verticalAlign=top;spacingLeft=4;spacingRight=4;overflow=hidden;rotatable=0;points=[[0,0.5],[1,0.5]];portConstraint=eastwest;rounded=1;glass=0;sketch=0;fontColor=#1D3557;swimlaneLine=0;" parent="yh_sQvZe-Dtuo9pEbm0h-75" vertex="1">
          <mxGeometry y="230" width="200" height="26" as="geometry" />
        </mxCell>
        <mxCell id="yh_sQvZe-Dtuo9pEbm0h-89" value="" style="line;strokeWidth=1;fillColor=none;align=left;verticalAlign=middle;spacingTop=-1;spacingLeft=3;spacingRight=3;rotatable=0;labelPosition=right;points=[];portConstraint=eastwest;rounded=1;glass=0;sketch=0;labelBackgroundColor=#F1FAEE;strokeColor=#457B9D;fontColor=#1D3557;swimlaneLine=0;" parent="yh_sQvZe-Dtuo9pEbm0h-75" vertex="1">
          <mxGeometry y="256" width="200" height="8" as="geometry" />
        </mxCell>
        <mxCell id="yh_sQvZe-Dtuo9pEbm0h-90" value="+ startTime: Date" style="text;strokeColor=none;fillColor=none;align=left;verticalAlign=top;spacingLeft=4;spacingRight=4;overflow=hidden;rotatable=0;points=[[0,0.5],[1,0.5]];portConstraint=eastwest;rounded=1;glass=0;sketch=0;fontColor=#1D3557;swimlaneLine=0;" parent="yh_sQvZe-Dtuo9pEbm0h-75" vertex="1">
          <mxGeometry y="264" width="200" height="26" as="geometry" />
        </mxCell>
        <mxCell id="yh_sQvZe-Dtuo9pEbm0h-91" value="" style="line;strokeWidth=1;fillColor=none;align=left;verticalAlign=middle;spacingTop=-1;spacingLeft=3;spacingRight=3;rotatable=0;labelPosition=right;points=[];portConstraint=eastwest;rounded=1;glass=0;sketch=0;labelBackgroundColor=#F1FAEE;strokeColor=#457B9D;fontColor=#1D3557;swimlaneLine=0;" parent="yh_sQvZe-Dtuo9pEbm0h-75" vertex="1">
          <mxGeometry y="290" width="200" height="8" as="geometry" />
        </mxCell>
        <mxCell id="yh_sQvZe-Dtuo9pEbm0h-92" value="+ endTime: Date" style="text;strokeColor=none;fillColor=none;align=left;verticalAlign=top;spacingLeft=4;spacingRight=4;overflow=hidden;rotatable=0;points=[[0,0.5],[1,0.5]];portConstraint=eastwest;rounded=1;glass=0;sketch=0;fontColor=#1D3557;swimlaneLine=0;" parent="yh_sQvZe-Dtuo9pEbm0h-75" vertex="1">
          <mxGeometry y="298" width="200" height="26" as="geometry" />
        </mxCell>
        <mxCell id="yh_sQvZe-Dtuo9pEbm0h-93" value="" style="line;strokeWidth=1;fillColor=none;align=left;verticalAlign=middle;spacingTop=-1;spacingLeft=3;spacingRight=3;rotatable=0;labelPosition=right;points=[];portConstraint=eastwest;rounded=1;glass=0;sketch=0;labelBackgroundColor=#F1FAEE;strokeColor=#457B9D;fontColor=#1D3557;swimlaneLine=0;" parent="yh_sQvZe-Dtuo9pEbm0h-75" vertex="1">
          <mxGeometry y="324" width="200" height="8" as="geometry" />
        </mxCell>
        <mxCell id="yh_sQvZe-Dtuo9pEbm0h-94" value="+ numberOfQuestions: Number" style="text;strokeColor=none;fillColor=none;align=left;verticalAlign=top;spacingLeft=4;spacingRight=4;overflow=hidden;rotatable=0;points=[[0,0.5],[1,0.5]];portConstraint=eastwest;rounded=1;glass=0;sketch=0;fontColor=#1D3557;swimlaneLine=0;" parent="yh_sQvZe-Dtuo9pEbm0h-75" vertex="1">
          <mxGeometry y="332" width="200" height="26" as="geometry" />
        </mxCell>
        <mxCell id="yh_sQvZe-Dtuo9pEbm0h-95" value="" style="line;strokeWidth=1;fillColor=none;align=left;verticalAlign=middle;spacingTop=-1;spacingLeft=3;spacingRight=3;rotatable=0;labelPosition=right;points=[];portConstraint=eastwest;rounded=1;glass=0;sketch=0;labelBackgroundColor=#F1FAEE;strokeColor=#457B9D;fontColor=#1D3557;swimlaneLine=0;" parent="yh_sQvZe-Dtuo9pEbm0h-75" vertex="1">
          <mxGeometry y="358" width="200" height="8" as="geometry" />
        </mxCell>
        <mxCell id="yh_sQvZe-Dtuo9pEbm0h-96" value="+ viewPoint: String" style="text;strokeColor=none;fillColor=none;align=left;verticalAlign=top;spacingLeft=4;spacingRight=4;overflow=hidden;rotatable=0;points=[[0,0.5],[1,0.5]];portConstraint=eastwest;rounded=1;glass=0;sketch=0;fontColor=#1D3557;swimlaneLine=0;" parent="yh_sQvZe-Dtuo9pEbm0h-75" vertex="1">
          <mxGeometry y="366" width="200" height="26" as="geometry" />
        </mxCell>
        <mxCell id="yh_sQvZe-Dtuo9pEbm0h-97" value="" style="line;strokeWidth=1;fillColor=none;align=left;verticalAlign=middle;spacingTop=-1;spacingLeft=3;spacingRight=3;rotatable=0;labelPosition=right;points=[];portConstraint=eastwest;rounded=1;glass=0;sketch=0;labelBackgroundColor=#F1FAEE;strokeColor=#457B9D;fontColor=#1D3557;swimlaneLine=0;" parent="yh_sQvZe-Dtuo9pEbm0h-75" vertex="1">
          <mxGeometry y="392" width="200" height="8" as="geometry" />
        </mxCell>
        <mxCell id="yh_sQvZe-Dtuo9pEbm0h-98" value="+ viewAnswer: String" style="text;strokeColor=none;fillColor=none;align=left;verticalAlign=top;spacingLeft=4;spacingRight=4;overflow=hidden;rotatable=0;points=[[0,0.5],[1,0.5]];portConstraint=eastwest;rounded=1;glass=0;sketch=0;fontColor=#1D3557;swimlaneLine=0;" parent="yh_sQvZe-Dtuo9pEbm0h-75" vertex="1">
          <mxGeometry y="400" width="200" height="26" as="geometry" />
        </mxCell>
        <mxCell id="yh_sQvZe-Dtuo9pEbm0h-99" value="" style="line;strokeWidth=1;fillColor=none;align=left;verticalAlign=middle;spacingTop=-1;spacingLeft=3;spacingRight=3;rotatable=0;labelPosition=right;points=[];portConstraint=eastwest;rounded=1;glass=0;sketch=0;labelBackgroundColor=#F1FAEE;strokeColor=#457B9D;fontColor=#1D3557;swimlaneLine=0;" parent="yh_sQvZe-Dtuo9pEbm0h-75" vertex="1">
          <mxGeometry y="426" width="200" height="8" as="geometry" />
        </mxCell>
        <mxCell id="yh_sQvZe-Dtuo9pEbm0h-100" value="+ maxPoints: Number" style="text;strokeColor=none;fillColor=none;align=left;verticalAlign=top;spacingLeft=4;spacingRight=4;overflow=hidden;rotatable=0;points=[[0,0.5],[1,0.5]];portConstraint=eastwest;rounded=1;glass=0;sketch=0;fontColor=#1D3557;swimlaneLine=0;" parent="yh_sQvZe-Dtuo9pEbm0h-75" vertex="1">
          <mxGeometry y="434" width="200" height="26" as="geometry" />
        </mxCell>
        <mxCell id="yh_sQvZe-Dtuo9pEbm0h-101" value="" style="line;strokeWidth=1;fillColor=none;align=left;verticalAlign=middle;spacingTop=-1;spacingLeft=3;spacingRight=3;rotatable=0;labelPosition=right;points=[];portConstraint=eastwest;rounded=1;glass=0;sketch=0;labelBackgroundColor=#F1FAEE;strokeColor=#457B9D;fontColor=#1D3557;swimlaneLine=0;" parent="yh_sQvZe-Dtuo9pEbm0h-75" vertex="1">
          <mxGeometry y="460" width="200" height="8" as="geometry" />
        </mxCell>
        <mxCell id="yh_sQvZe-Dtuo9pEbm0h-102" value="+ typeOfPoint: String" style="text;strokeColor=none;fillColor=none;align=left;verticalAlign=top;spacingLeft=4;spacingRight=4;overflow=hidden;rotatable=0;points=[[0,0.5],[1,0.5]];portConstraint=eastwest;rounded=1;glass=0;sketch=0;fontColor=#1D3557;swimlaneLine=0;" parent="yh_sQvZe-Dtuo9pEbm0h-75" vertex="1">
          <mxGeometry y="468" width="200" height="26" as="geometry" />
        </mxCell>
        <mxCell id="yh_sQvZe-Dtuo9pEbm0h-103" value="" style="line;strokeWidth=1;fillColor=none;align=left;verticalAlign=middle;spacingTop=-1;spacingLeft=3;spacingRight=3;rotatable=0;labelPosition=right;points=[];portConstraint=eastwest;rounded=1;glass=0;sketch=0;labelBackgroundColor=#F1FAEE;strokeColor=#457B9D;fontColor=#1D3557;swimlaneLine=0;" parent="yh_sQvZe-Dtuo9pEbm0h-75" vertex="1">
          <mxGeometry y="494" width="200" height="8" as="geometry" />
        </mxCell>
        <mxCell id="yh_sQvZe-Dtuo9pEbm0h-104" value="+ maxTime: Number" style="text;strokeColor=none;fillColor=none;align=left;verticalAlign=top;spacingLeft=4;spacingRight=4;overflow=hidden;rotatable=0;points=[[0,0.5],[1,0.5]];portConstraint=eastwest;rounded=1;glass=0;sketch=0;fontColor=#1D3557;swimlaneLine=0;" parent="yh_sQvZe-Dtuo9pEbm0h-75" vertex="1">
          <mxGeometry y="502" width="200" height="26" as="geometry" />
        </mxCell>
        <mxCell id="yh_sQvZe-Dtuo9pEbm0h-105" value="" style="line;strokeWidth=1;fillColor=none;align=left;verticalAlign=middle;spacingTop=-1;spacingLeft=3;spacingRight=3;rotatable=0;labelPosition=right;points=[];portConstraint=eastwest;rounded=1;glass=0;sketch=0;labelBackgroundColor=#F1FAEE;strokeColor=#457B9D;fontColor=#1D3557;swimlaneLine=0;" parent="yh_sQvZe-Dtuo9pEbm0h-75" vertex="1">
          <mxGeometry y="528" width="200" height="8" as="geometry" />
        </mxCell>
        <mxCell id="yh_sQvZe-Dtuo9pEbm0h-106" value="+ tracking: Boolean" style="text;strokeColor=none;fillColor=none;align=left;verticalAlign=top;spacingLeft=4;spacingRight=4;overflow=hidden;rotatable=0;points=[[0,0.5],[1,0.5]];portConstraint=eastwest;rounded=1;glass=0;sketch=0;fontColor=#1D3557;swimlaneLine=0;" parent="yh_sQvZe-Dtuo9pEbm0h-75" vertex="1">
          <mxGeometry y="536" width="200" height="26" as="geometry" />
        </mxCell>
        <mxCell id="yh_sQvZe-Dtuo9pEbm0h-107" value="" style="line;strokeWidth=1;fillColor=none;align=left;verticalAlign=middle;spacingTop=-1;spacingLeft=3;spacingRight=3;rotatable=0;labelPosition=right;points=[];portConstraint=eastwest;rounded=1;glass=0;sketch=0;labelBackgroundColor=#F1FAEE;strokeColor=#457B9D;fontColor=#1D3557;swimlaneLine=0;" parent="yh_sQvZe-Dtuo9pEbm0h-75" vertex="1">
          <mxGeometry y="562" width="200" height="8" as="geometry" />
        </mxCell>
        <mxCell id="yh_sQvZe-Dtuo9pEbm0h-108" value="+ shuffle: Boolean" style="text;strokeColor=none;fillColor=none;align=left;verticalAlign=top;spacingLeft=4;spacingRight=4;overflow=hidden;rotatable=0;points=[[0,0.5],[1,0.5]];portConstraint=eastwest;rounded=1;glass=0;sketch=0;fontColor=#1D3557;swimlaneLine=0;" parent="yh_sQvZe-Dtuo9pEbm0h-75" vertex="1">
          <mxGeometry y="570" width="200" height="26" as="geometry" />
        </mxCell>
        <mxCell id="yh_sQvZe-Dtuo9pEbm0h-109" value="" style="line;strokeWidth=1;fillColor=none;align=left;verticalAlign=middle;spacingTop=-1;spacingLeft=3;spacingRight=3;rotatable=0;labelPosition=right;points=[];portConstraint=eastwest;rounded=1;glass=0;sketch=0;labelBackgroundColor=#F1FAEE;strokeColor=#457B9D;fontColor=#1D3557;swimlaneLine=0;" parent="yh_sQvZe-Dtuo9pEbm0h-75" vertex="1">
          <mxGeometry y="596" width="200" height="8" as="geometry" />
        </mxCell>
        <mxCell id="yh_sQvZe-Dtuo9pEbm0h-110" value="+ status: String" style="text;strokeColor=none;fillColor=none;align=left;verticalAlign=top;spacingLeft=4;spacingRight=4;overflow=hidden;rotatable=0;points=[[0,0.5],[1,0.5]];portConstraint=eastwest;rounded=1;glass=0;sketch=0;fontColor=#1D3557;swimlaneLine=0;" parent="yh_sQvZe-Dtuo9pEbm0h-75" vertex="1">
          <mxGeometry y="604" width="200" height="26" as="geometry" />
        </mxCell>
        <mxCell id="yh_sQvZe-Dtuo9pEbm0h-111" style="edgeStyle=orthogonalEdgeStyle;rounded=0;orthogonalLoop=1;jettySize=auto;html=1;entryX=1;entryY=0.5;entryDx=0;entryDy=0;strokeColor=#457B9D;fontColor=#1D3557;startArrow=ERmany;startFill=0;endArrow=none;endFill=0;fillColor=#A8DADC;exitX=1;exitY=0.5;exitDx=0;exitDy=0;swimlaneLine=0;labelBackgroundColor=#F1FAEE;" parent="1" source="yh_sQvZe-Dtuo9pEbm0h-113" target="yh_sQvZe-Dtuo9pEbm0h-159" edge="1">
          <mxGeometry relative="1" as="geometry" />
        </mxCell>
        <mxCell id="yh_sQvZe-Dtuo9pEbm0h-112" value="exam_log" style="swimlane;fontStyle=1;align=center;verticalAlign=top;childLayout=stackLayout;horizontal=1;startSize=26;horizontalStack=0;resizeParent=1;resizeParentMax=0;resizeLast=0;collapsible=1;marginBottom=0;rounded=1;glass=0;sketch=0;fillColor=#dae8fc;strokeColor=#6c8ebf;swimlaneLine=0;" parent="1" vertex="1">
          <mxGeometry x="991" y="414" width="200" height="154" as="geometry" />
        </mxCell>
        <mxCell id="yh_sQvZe-Dtuo9pEbm0h-113" value="+ logId: Number" style="text;strokeColor=none;fillColor=none;align=left;verticalAlign=top;spacingLeft=4;spacingRight=4;overflow=hidden;rotatable=0;points=[[0,0.5],[1,0.5]];portConstraint=eastwest;rounded=1;glass=0;sketch=0;fontColor=#1D3557;swimlaneLine=0;" parent="yh_sQvZe-Dtuo9pEbm0h-112" vertex="1">
          <mxGeometry y="26" width="200" height="26" as="geometry" />
        </mxCell>
        <mxCell id="yh_sQvZe-Dtuo9pEbm0h-114" value="" style="line;strokeWidth=1;fillColor=none;align=left;verticalAlign=middle;spacingTop=-1;spacingLeft=3;spacingRight=3;rotatable=0;labelPosition=right;points=[];portConstraint=eastwest;rounded=1;glass=0;sketch=0;labelBackgroundColor=#F1FAEE;strokeColor=#457B9D;fontColor=#1D3557;swimlaneLine=0;" parent="yh_sQvZe-Dtuo9pEbm0h-112" vertex="1">
          <mxGeometry y="52" width="200" height="8" as="geometry" />
        </mxCell>
        <mxCell id="yh_sQvZe-Dtuo9pEbm0h-115" value="+ takeExamId: ObjectId" style="text;strokeColor=none;fillColor=none;align=left;verticalAlign=top;spacingLeft=4;spacingRight=4;overflow=hidden;rotatable=0;points=[[0,0.5],[1,0.5]];portConstraint=eastwest;rounded=1;glass=0;sketch=0;fontColor=#1D3557;swimlaneLine=0;" parent="yh_sQvZe-Dtuo9pEbm0h-112" vertex="1">
          <mxGeometry y="60" width="200" height="26" as="geometry" />
        </mxCell>
        <mxCell id="yh_sQvZe-Dtuo9pEbm0h-116" value="" style="line;strokeWidth=1;fillColor=none;align=left;verticalAlign=middle;spacingTop=-1;spacingLeft=3;spacingRight=3;rotatable=0;labelPosition=right;points=[];portConstraint=eastwest;rounded=1;glass=0;sketch=0;labelBackgroundColor=#F1FAEE;strokeColor=#457B9D;fontColor=#1D3557;swimlaneLine=0;" parent="yh_sQvZe-Dtuo9pEbm0h-112" vertex="1">
          <mxGeometry y="86" width="200" height="8" as="geometry" />
        </mxCell>
        <mxCell id="yh_sQvZe-Dtuo9pEbm0h-117" value="+ logs.time: Date" style="text;strokeColor=none;fillColor=none;align=left;verticalAlign=top;spacingLeft=4;spacingRight=4;overflow=hidden;rotatable=0;points=[[0,0.5],[1,0.5]];portConstraint=eastwest;rounded=1;glass=0;sketch=0;fontColor=#1D3557;swimlaneLine=0;" parent="yh_sQvZe-Dtuo9pEbm0h-112" vertex="1">
          <mxGeometry y="94" width="200" height="26" as="geometry" />
        </mxCell>
        <mxCell id="yh_sQvZe-Dtuo9pEbm0h-118" value="" style="line;strokeWidth=1;fillColor=none;align=left;verticalAlign=middle;spacingTop=-1;spacingLeft=3;spacingRight=3;rotatable=0;labelPosition=right;points=[];portConstraint=eastwest;rounded=1;glass=0;sketch=0;labelBackgroundColor=#F1FAEE;strokeColor=#457B9D;fontColor=#1D3557;swimlaneLine=0;" parent="yh_sQvZe-Dtuo9pEbm0h-112" vertex="1">
          <mxGeometry y="120" width="200" height="8" as="geometry" />
        </mxCell>
        <mxCell id="yh_sQvZe-Dtuo9pEbm0h-119" value="+ logs.acction: String" style="text;strokeColor=none;fillColor=none;align=left;verticalAlign=top;spacingLeft=4;spacingRight=4;overflow=hidden;rotatable=0;points=[[0,0.5],[1,0.5]];portConstraint=eastwest;rounded=1;glass=0;sketch=0;fontColor=#1D3557;swimlaneLine=0;" parent="yh_sQvZe-Dtuo9pEbm0h-112" vertex="1">
          <mxGeometry y="128" width="200" height="26" as="geometry" />
        </mxCell>
        <mxCell id="yh_sQvZe-Dtuo9pEbm0h-120" value="question" style="swimlane;fontStyle=1;align=center;verticalAlign=top;childLayout=stackLayout;horizontal=1;startSize=26;horizontalStack=0;resizeParent=1;resizeParentMax=0;resizeLast=0;collapsible=1;marginBottom=0;rounded=1;glass=0;sketch=0;fillColor=#dae8fc;strokeColor=#6c8ebf;swimlaneLine=0;" parent="1" vertex="1">
          <mxGeometry x="710" y="711" width="200" height="188" as="geometry" />
        </mxCell>
        <mxCell id="yh_sQvZe-Dtuo9pEbm0h-121" value="+ id: ObjectId" style="text;strokeColor=none;fillColor=none;align=left;verticalAlign=top;spacingLeft=4;spacingRight=4;overflow=hidden;rotatable=0;points=[[0,0.5],[1,0.5]];portConstraint=eastwest;rounded=1;glass=0;sketch=0;fontColor=#1D3557;swimlaneLine=0;" parent="yh_sQvZe-Dtuo9pEbm0h-120" vertex="1">
          <mxGeometry y="26" width="200" height="26" as="geometry" />
        </mxCell>
        <mxCell id="yh_sQvZe-Dtuo9pEbm0h-122" value="" style="line;strokeWidth=1;fillColor=none;align=left;verticalAlign=middle;spacingTop=-1;spacingLeft=3;spacingRight=3;rotatable=0;labelPosition=right;points=[];portConstraint=eastwest;rounded=1;glass=0;sketch=0;labelBackgroundColor=#F1FAEE;strokeColor=#457B9D;fontColor=#1D3557;swimlaneLine=0;" parent="yh_sQvZe-Dtuo9pEbm0h-120" vertex="1">
          <mxGeometry y="52" width="200" height="8" as="geometry" />
        </mxCell>
        <mxCell id="yh_sQvZe-Dtuo9pEbm0h-123" value="+ type: String" style="text;strokeColor=none;fillColor=none;align=left;verticalAlign=top;spacingLeft=4;spacingRight=4;overflow=hidden;rotatable=0;points=[[0,0.5],[1,0.5]];portConstraint=eastwest;rounded=1;glass=0;sketch=0;fontColor=#1D3557;swimlaneLine=0;" parent="yh_sQvZe-Dtuo9pEbm0h-120" vertex="1">
          <mxGeometry y="60" width="200" height="26" as="geometry" />
        </mxCell>
        <mxCell id="yh_sQvZe-Dtuo9pEbm0h-124" value="" style="line;strokeWidth=1;fillColor=none;align=left;verticalAlign=middle;spacingTop=-1;spacingLeft=3;spacingRight=3;rotatable=0;labelPosition=right;points=[];portConstraint=eastwest;rounded=1;glass=0;sketch=0;labelBackgroundColor=#F1FAEE;strokeColor=#457B9D;fontColor=#1D3557;swimlaneLine=0;" parent="yh_sQvZe-Dtuo9pEbm0h-120" vertex="1">
          <mxGeometry y="86" width="200" height="8" as="geometry" />
        </mxCell>
        <mxCell id="yh_sQvZe-Dtuo9pEbm0h-125" value="+ content: String" style="text;strokeColor=none;fillColor=none;align=left;verticalAlign=top;spacingLeft=4;spacingRight=4;overflow=hidden;rotatable=0;points=[[0,0.5],[1,0.5]];portConstraint=eastwest;rounded=1;glass=0;sketch=0;fontColor=#1D3557;swimlaneLine=0;" parent="yh_sQvZe-Dtuo9pEbm0h-120" vertex="1">
          <mxGeometry y="94" width="200" height="26" as="geometry" />
        </mxCell>
        <mxCell id="yh_sQvZe-Dtuo9pEbm0h-126" value="" style="line;strokeWidth=1;fillColor=none;align=left;verticalAlign=middle;spacingTop=-1;spacingLeft=3;spacingRight=3;rotatable=0;labelPosition=right;points=[];portConstraint=eastwest;rounded=1;glass=0;sketch=0;labelBackgroundColor=#F1FAEE;strokeColor=#457B9D;fontColor=#1D3557;swimlaneLine=0;" parent="yh_sQvZe-Dtuo9pEbm0h-120" vertex="1">
          <mxGeometry y="120" width="200" height="8" as="geometry" />
        </mxCell>
        <mxCell id="yh_sQvZe-Dtuo9pEbm0h-127" value="+ answers: ArrayObjectId" style="text;strokeColor=none;fillColor=none;align=left;verticalAlign=top;spacingLeft=4;spacingRight=4;overflow=hidden;rotatable=0;points=[[0,0.5],[1,0.5]];portConstraint=eastwest;rounded=1;glass=0;sketch=0;fontColor=#1D3557;swimlaneLine=0;" parent="yh_sQvZe-Dtuo9pEbm0h-120" vertex="1">
          <mxGeometry y="128" width="200" height="26" as="geometry" />
        </mxCell>
        <mxCell id="yh_sQvZe-Dtuo9pEbm0h-130" value="" style="line;strokeWidth=1;fillColor=none;align=left;verticalAlign=middle;spacingTop=-1;spacingLeft=3;spacingRight=3;rotatable=0;labelPosition=right;points=[];portConstraint=eastwest;rounded=1;glass=0;sketch=0;labelBackgroundColor=#F1FAEE;strokeColor=#457B9D;fontColor=#1D3557;swimlaneLine=0;" parent="yh_sQvZe-Dtuo9pEbm0h-120" vertex="1">
          <mxGeometry y="154" width="200" height="8" as="geometry" />
        </mxCell>
        <mxCell id="yh_sQvZe-Dtuo9pEbm0h-131" value="+ maxPoints: Number" style="text;strokeColor=none;fillColor=none;align=left;verticalAlign=top;spacingLeft=4;spacingRight=4;overflow=hidden;rotatable=0;points=[[0,0.5],[1,0.5]];portConstraint=eastwest;rounded=1;glass=0;sketch=0;fontColor=#1D3557;swimlaneLine=0;" parent="yh_sQvZe-Dtuo9pEbm0h-120" vertex="1">
          <mxGeometry y="162" width="200" height="26" as="geometry" />
        </mxCell>
        <mxCell id="yh_sQvZe-Dtuo9pEbm0h-132" value="question_bank" style="swimlane;fontStyle=1;align=center;verticalAlign=top;childLayout=stackLayout;horizontal=1;startSize=26;horizontalStack=0;resizeParent=1;resizeParentMax=0;resizeLast=0;collapsible=1;marginBottom=0;rounded=1;glass=0;sketch=0;fillColor=#dae8fc;strokeColor=#6c8ebf;swimlaneLine=0;" parent="1" vertex="1">
          <mxGeometry x="700" y="1054" width="200" height="222" as="geometry" />
        </mxCell>
        <mxCell id="yh_sQvZe-Dtuo9pEbm0h-133" value="+ id: ObjectId" style="text;strokeColor=none;fillColor=none;align=left;verticalAlign=top;spacingLeft=4;spacingRight=4;overflow=hidden;rotatable=0;points=[[0,0.5],[1,0.5]];portConstraint=eastwest;rounded=1;glass=0;sketch=0;fontColor=#1D3557;swimlaneLine=0;" parent="yh_sQvZe-Dtuo9pEbm0h-132" vertex="1">
          <mxGeometry y="26" width="200" height="26" as="geometry" />
        </mxCell>
        <mxCell id="yh_sQvZe-Dtuo9pEbm0h-134" value="" style="line;strokeWidth=1;fillColor=none;align=left;verticalAlign=middle;spacingTop=-1;spacingLeft=3;spacingRight=3;rotatable=0;labelPosition=right;points=[];portConstraint=eastwest;rounded=1;glass=0;sketch=0;labelBackgroundColor=#F1FAEE;strokeColor=#457B9D;fontColor=#1D3557;swimlaneLine=0;" parent="yh_sQvZe-Dtuo9pEbm0h-132" vertex="1">
          <mxGeometry y="52" width="200" height="8" as="geometry" />
        </mxCell>
        <mxCell id="yh_sQvZe-Dtuo9pEbm0h-135" value="+ name: String" style="text;strokeColor=none;fillColor=none;align=left;verticalAlign=top;spacingLeft=4;spacingRight=4;overflow=hidden;rotatable=0;points=[[0,0.5],[1,0.5]];portConstraint=eastwest;rounded=1;glass=0;sketch=0;fontColor=#1D3557;swimlaneLine=0;" parent="yh_sQvZe-Dtuo9pEbm0h-132" vertex="1">
          <mxGeometry y="60" width="200" height="26" as="geometry" />
        </mxCell>
        <mxCell id="yh_sQvZe-Dtuo9pEbm0h-136" value="" style="line;strokeWidth=1;fillColor=none;align=left;verticalAlign=middle;spacingTop=-1;spacingLeft=3;spacingRight=3;rotatable=0;labelPosition=right;points=[];portConstraint=eastwest;rounded=1;glass=0;sketch=0;labelBackgroundColor=#F1FAEE;strokeColor=#457B9D;fontColor=#1D3557;swimlaneLine=0;" parent="yh_sQvZe-Dtuo9pEbm0h-132" vertex="1">
          <mxGeometry y="86" width="200" height="8" as="geometry" />
        </mxCell>
        <mxCell id="yh_sQvZe-Dtuo9pEbm0h-137" value="+ description: String" style="text;strokeColor=none;fillColor=none;align=left;verticalAlign=top;spacingLeft=4;spacingRight=4;overflow=hidden;rotatable=0;points=[[0,0.5],[1,0.5]];portConstraint=eastwest;rounded=1;glass=0;sketch=0;fontColor=#1D3557;swimlaneLine=0;" parent="yh_sQvZe-Dtuo9pEbm0h-132" vertex="1">
          <mxGeometry y="94" width="200" height="26" as="geometry" />
        </mxCell>
        <mxCell id="yh_sQvZe-Dtuo9pEbm0h-138" value="" style="line;strokeWidth=1;fillColor=none;align=left;verticalAlign=middle;spacingTop=-1;spacingLeft=3;spacingRight=3;rotatable=0;labelPosition=right;points=[];portConstraint=eastwest;rounded=1;glass=0;sketch=0;labelBackgroundColor=#F1FAEE;strokeColor=#457B9D;fontColor=#1D3557;swimlaneLine=0;" parent="yh_sQvZe-Dtuo9pEbm0h-132" vertex="1">
          <mxGeometry y="120" width="200" height="8" as="geometry" />
        </mxCell>
        <mxCell id="yh_sQvZe-Dtuo9pEbm0h-139" value="+ creatorId: ObjectId" style="text;strokeColor=none;fillColor=none;align=left;verticalAlign=top;spacingLeft=4;spacingRight=4;overflow=hidden;rotatable=0;points=[[0,0.5],[1,0.5]];portConstraint=eastwest;rounded=1;glass=0;sketch=0;fontColor=#1D3557;swimlaneLine=0;" parent="yh_sQvZe-Dtuo9pEbm0h-132" vertex="1">
          <mxGeometry y="128" width="200" height="26" as="geometry" />
        </mxCell>
        <mxCell id="yh_sQvZe-Dtuo9pEbm0h-140" value="" style="line;strokeWidth=1;fillColor=none;align=left;verticalAlign=middle;spacingTop=-1;spacingLeft=3;spacingRight=3;rotatable=0;labelPosition=right;points=[];portConstraint=eastwest;rounded=1;glass=0;sketch=0;labelBackgroundColor=#F1FAEE;strokeColor=#457B9D;fontColor=#1D3557;swimlaneLine=0;" parent="yh_sQvZe-Dtuo9pEbm0h-132" vertex="1">
          <mxGeometry y="154" width="200" height="8" as="geometry" />
        </mxCell>
        <mxCell id="yh_sQvZe-Dtuo9pEbm0h-141" value="+ questions: ArrayObjectId" style="text;strokeColor=none;fillColor=none;align=left;verticalAlign=top;spacingLeft=4;spacingRight=4;overflow=hidden;rotatable=0;points=[[0,0.5],[1,0.5]];portConstraint=eastwest;rounded=1;glass=0;sketch=0;fontColor=#1D3557;swimlaneLine=0;" parent="yh_sQvZe-Dtuo9pEbm0h-132" vertex="1">
          <mxGeometry y="162" width="200" height="26" as="geometry" />
        </mxCell>
        <mxCell id="yh_sQvZe-Dtuo9pEbm0h-142" value="" style="line;strokeWidth=1;fillColor=none;align=left;verticalAlign=middle;spacingTop=-1;spacingLeft=3;spacingRight=3;rotatable=0;labelPosition=right;points=[];portConstraint=eastwest;rounded=1;glass=0;sketch=0;labelBackgroundColor=#F1FAEE;strokeColor=#457B9D;fontColor=#1D3557;swimlaneLine=0;" parent="yh_sQvZe-Dtuo9pEbm0h-132" vertex="1">
          <mxGeometry y="188" width="200" height="8" as="geometry" />
        </mxCell>
        <mxCell id="yh_sQvZe-Dtuo9pEbm0h-143" value="+ slug: Number" style="text;strokeColor=none;fillColor=none;align=left;verticalAlign=top;spacingLeft=4;spacingRight=4;overflow=hidden;rotatable=0;points=[[0,0.5],[1,0.5]];portConstraint=eastwest;rounded=1;glass=0;sketch=0;fontColor=#1D3557;swimlaneLine=0;" parent="yh_sQvZe-Dtuo9pEbm0h-132" vertex="1">
          <mxGeometry y="196" width="200" height="26" as="geometry" />
        </mxCell>
        <mxCell id="yh_sQvZe-Dtuo9pEbm0h-144" value="submit_assignment" style="swimlane;fontStyle=1;align=center;verticalAlign=top;childLayout=stackLayout;horizontal=1;startSize=26;horizontalStack=0;resizeParent=1;resizeParentMax=0;resizeLast=0;collapsible=1;marginBottom=0;rounded=1;glass=0;sketch=0;fillColor=#dae8fc;strokeColor=#6c8ebf;swimlaneLine=0;" parent="1" vertex="1">
          <mxGeometry x="70" y="624" width="200" height="256" as="geometry" />
        </mxCell>
        <mxCell id="yh_sQvZe-Dtuo9pEbm0h-145" value="+ id: ObjectId" style="text;strokeColor=none;fillColor=none;align=left;verticalAlign=top;spacingLeft=4;spacingRight=4;overflow=hidden;rotatable=0;points=[[0,0.5],[1,0.5]];portConstraint=eastwest;rounded=1;glass=0;sketch=0;fontColor=#1D3557;swimlaneLine=0;" parent="yh_sQvZe-Dtuo9pEbm0h-144" vertex="1">
          <mxGeometry y="26" width="200" height="26" as="geometry" />
        </mxCell>
        <mxCell id="yh_sQvZe-Dtuo9pEbm0h-146" value="" style="line;strokeWidth=1;fillColor=none;align=left;verticalAlign=middle;spacingTop=-1;spacingLeft=3;spacingRight=3;rotatable=0;labelPosition=right;points=[];portConstraint=eastwest;strokeColor=#457B9D;rounded=1;fontColor=#1D3557;swimlaneLine=0;labelBackgroundColor=#F1FAEE;" parent="yh_sQvZe-Dtuo9pEbm0h-144" vertex="1">
          <mxGeometry y="52" width="200" height="8" as="geometry" />
        </mxCell>
        <mxCell id="yh_sQvZe-Dtuo9pEbm0h-147" value="+ assignmentId: ObjectId" style="text;strokeColor=none;fillColor=none;align=left;verticalAlign=top;spacingLeft=4;spacingRight=4;overflow=hidden;rotatable=0;points=[[0,0.5],[1,0.5]];portConstraint=eastwest;rounded=1;glass=0;sketch=0;fontColor=#1D3557;swimlaneLine=0;" parent="yh_sQvZe-Dtuo9pEbm0h-144" vertex="1">
          <mxGeometry y="60" width="200" height="26" as="geometry" />
        </mxCell>
        <mxCell id="yh_sQvZe-Dtuo9pEbm0h-148" value="" style="line;strokeWidth=1;fillColor=none;align=left;verticalAlign=middle;spacingTop=-1;spacingLeft=3;spacingRight=3;rotatable=0;labelPosition=right;points=[];portConstraint=eastwest;rounded=1;glass=0;sketch=0;labelBackgroundColor=#F1FAEE;strokeColor=#457B9D;fontColor=#1D3557;swimlaneLine=0;" parent="yh_sQvZe-Dtuo9pEbm0h-144" vertex="1">
          <mxGeometry y="86" width="200" height="8" as="geometry" />
        </mxCell>
        <mxCell id="yh_sQvZe-Dtuo9pEbm0h-149" value="+ creatorId: ObjectId" style="text;strokeColor=none;fillColor=none;align=left;verticalAlign=top;spacingLeft=4;spacingRight=4;overflow=hidden;rotatable=0;points=[[0,0.5],[1,0.5]];portConstraint=eastwest;rounded=1;glass=0;sketch=0;fontColor=#1D3557;swimlaneLine=0;" parent="yh_sQvZe-Dtuo9pEbm0h-144" vertex="1">
          <mxGeometry y="94" width="200" height="26" as="geometry" />
        </mxCell>
        <mxCell id="yh_sQvZe-Dtuo9pEbm0h-150" value="" style="line;strokeWidth=1;fillColor=none;align=left;verticalAlign=middle;spacingTop=-1;spacingLeft=3;spacingRight=3;rotatable=0;labelPosition=right;points=[];portConstraint=eastwest;rounded=1;glass=0;sketch=0;labelBackgroundColor=#F1FAEE;strokeColor=#457B9D;fontColor=#1D3557;swimlaneLine=0;" parent="yh_sQvZe-Dtuo9pEbm0h-144" vertex="1">
          <mxGeometry y="120" width="200" height="8" as="geometry" />
        </mxCell>
        <mxCell id="yh_sQvZe-Dtuo9pEbm0h-151" value="+ content: String" style="text;strokeColor=none;fillColor=none;align=left;verticalAlign=top;spacingLeft=4;spacingRight=4;overflow=hidden;rotatable=0;points=[[0,0.5],[1,0.5]];portConstraint=eastwest;rounded=1;glass=0;sketch=0;fontColor=#1D3557;swimlaneLine=0;" parent="yh_sQvZe-Dtuo9pEbm0h-144" vertex="1">
          <mxGeometry y="128" width="200" height="26" as="geometry" />
        </mxCell>
        <mxCell id="yh_sQvZe-Dtuo9pEbm0h-152" value="" style="line;strokeWidth=1;fillColor=none;align=left;verticalAlign=middle;spacingTop=-1;spacingLeft=3;spacingRight=3;rotatable=0;labelPosition=right;points=[];portConstraint=eastwest;rounded=1;glass=0;sketch=0;labelBackgroundColor=#F1FAEE;strokeColor=#457B9D;fontColor=#1D3557;swimlaneLine=0;" parent="yh_sQvZe-Dtuo9pEbm0h-144" vertex="1">
          <mxGeometry y="154" width="200" height="8" as="geometry" />
        </mxCell>
        <mxCell id="yh_sQvZe-Dtuo9pEbm0h-153" value="+ submitTime: Date" style="text;strokeColor=none;fillColor=none;align=left;verticalAlign=top;spacingLeft=4;spacingRight=4;overflow=hidden;rotatable=0;points=[[0,0.5],[1,0.5]];portConstraint=eastwest;rounded=1;glass=0;sketch=0;fontColor=#1D3557;swimlaneLine=0;" parent="yh_sQvZe-Dtuo9pEbm0h-144" vertex="1">
          <mxGeometry y="162" width="200" height="26" as="geometry" />
        </mxCell>
        <mxCell id="yh_sQvZe-Dtuo9pEbm0h-154" value="" style="line;strokeWidth=1;fillColor=none;align=left;verticalAlign=middle;spacingTop=-1;spacingLeft=3;spacingRight=3;rotatable=0;labelPosition=right;points=[];portConstraint=eastwest;rounded=1;glass=0;sketch=0;labelBackgroundColor=#F1FAEE;strokeColor=#457B9D;fontColor=#1D3557;swimlaneLine=0;" parent="yh_sQvZe-Dtuo9pEbm0h-144" vertex="1">
          <mxGeometry y="188" width="200" height="8" as="geometry" />
        </mxCell>
        <mxCell id="yh_sQvZe-Dtuo9pEbm0h-155" value="+ file: String" style="text;strokeColor=none;fillColor=none;align=left;verticalAlign=top;spacingLeft=4;spacingRight=4;overflow=hidden;rotatable=0;points=[[0,0.5],[1,0.5]];portConstraint=eastwest;rounded=1;glass=0;sketch=0;fontColor=#1D3557;swimlaneLine=0;" parent="yh_sQvZe-Dtuo9pEbm0h-144" vertex="1">
          <mxGeometry y="196" width="200" height="26" as="geometry" />
        </mxCell>
        <mxCell id="yh_sQvZe-Dtuo9pEbm0h-156" value="" style="line;strokeWidth=1;fillColor=none;align=left;verticalAlign=middle;spacingTop=-1;spacingLeft=3;spacingRight=3;rotatable=0;labelPosition=right;points=[];portConstraint=eastwest;rounded=1;glass=0;sketch=0;labelBackgroundColor=#F1FAEE;strokeColor=#457B9D;fontColor=#1D3557;swimlaneLine=0;" parent="yh_sQvZe-Dtuo9pEbm0h-144" vertex="1">
          <mxGeometry y="222" width="200" height="8" as="geometry" />
        </mxCell>
        <mxCell id="yh_sQvZe-Dtuo9pEbm0h-157" value="+ points: Number" style="text;strokeColor=none;fillColor=none;align=left;verticalAlign=top;spacingLeft=4;spacingRight=4;overflow=hidden;rotatable=0;points=[[0,0.5],[1,0.5]];portConstraint=eastwest;rounded=1;glass=0;sketch=0;fontColor=#1D3557;swimlaneLine=0;" parent="yh_sQvZe-Dtuo9pEbm0h-144" vertex="1">
          <mxGeometry y="230" width="200" height="26" as="geometry" />
        </mxCell>
        <mxCell id="yh_sQvZe-Dtuo9pEbm0h-158" value="take_exam" style="swimlane;fontStyle=1;align=center;verticalAlign=top;childLayout=stackLayout;horizontal=1;startSize=26;horizontalStack=0;resizeParent=1;resizeParentMax=0;resizeLast=0;collapsible=1;marginBottom=0;fillColor=#dae8fc;strokeColor=#6c8ebf;rounded=1;swimlaneLine=0;" parent="1" vertex="1">
          <mxGeometry x="991" y="40" width="200" height="290" as="geometry" />
        </mxCell>
        <mxCell id="yh_sQvZe-Dtuo9pEbm0h-159" value="+ id: ObjectId" style="text;strokeColor=none;fillColor=none;align=left;verticalAlign=top;spacingLeft=4;spacingRight=4;overflow=hidden;rotatable=0;points=[[0,0.5],[1,0.5]];portConstraint=eastwest;fontColor=#1D3557;swimlaneLine=0;" parent="yh_sQvZe-Dtuo9pEbm0h-158" vertex="1">
          <mxGeometry y="26" width="200" height="26" as="geometry" />
        </mxCell>
        <mxCell id="yh_sQvZe-Dtuo9pEbm0h-160" value="" style="line;strokeWidth=1;fillColor=none;align=left;verticalAlign=middle;spacingTop=-1;spacingLeft=3;spacingRight=3;rotatable=0;labelPosition=right;points=[];portConstraint=eastwest;strokeColor=#457B9D;rounded=1;labelBackgroundColor=#F1FAEE;fontColor=#1D3557;swimlaneLine=0;" parent="yh_sQvZe-Dtuo9pEbm0h-158" vertex="1">
          <mxGeometry y="52" width="200" height="8" as="geometry" />
        </mxCell>
        <mxCell id="yh_sQvZe-Dtuo9pEbm0h-161" value="+ examId: ObjectId" style="text;strokeColor=none;fillColor=none;align=left;verticalAlign=top;spacingLeft=4;spacingRight=4;overflow=hidden;rotatable=0;points=[[0,0.5],[1,0.5]];portConstraint=eastwest;fontColor=#1D3557;swimlaneLine=0;" parent="yh_sQvZe-Dtuo9pEbm0h-158" vertex="1">
          <mxGeometry y="60" width="200" height="26" as="geometry" />
        </mxCell>
        <mxCell id="yh_sQvZe-Dtuo9pEbm0h-162" value="" style="line;strokeWidth=1;fillColor=none;align=left;verticalAlign=middle;spacingTop=-1;spacingLeft=3;spacingRight=3;rotatable=0;labelPosition=right;points=[];portConstraint=eastwest;strokeColor=#457B9D;rounded=1;labelBackgroundColor=#F1FAEE;fontColor=#1D3557;swimlaneLine=0;" parent="yh_sQvZe-Dtuo9pEbm0h-158" vertex="1">
          <mxGeometry y="86" width="200" height="8" as="geometry" />
        </mxCell>
        <mxCell id="yh_sQvZe-Dtuo9pEbm0h-163" value="+ userId: ObjectId" style="text;strokeColor=none;fillColor=none;align=left;verticalAlign=top;spacingLeft=4;spacingRight=4;overflow=hidden;rotatable=0;points=[[0,0.5],[1,0.5]];portConstraint=eastwest;fontColor=#1D3557;swimlaneLine=0;" parent="yh_sQvZe-Dtuo9pEbm0h-158" vertex="1">
          <mxGeometry y="94" width="200" height="26" as="geometry" />
        </mxCell>
        <mxCell id="yh_sQvZe-Dtuo9pEbm0h-164" value="" style="line;strokeWidth=1;fillColor=none;align=left;verticalAlign=middle;spacingTop=-1;spacingLeft=3;spacingRight=3;rotatable=0;labelPosition=right;points=[];portConstraint=eastwest;strokeColor=#457B9D;rounded=1;labelBackgroundColor=#F1FAEE;fontColor=#1D3557;swimlaneLine=0;" parent="yh_sQvZe-Dtuo9pEbm0h-158" vertex="1">
          <mxGeometry y="120" width="200" height="8" as="geometry" />
        </mxCell>
        <mxCell id="yh_sQvZe-Dtuo9pEbm0h-165" value="+ startTime: Date" style="text;strokeColor=none;fillColor=none;align=left;verticalAlign=top;spacingLeft=4;spacingRight=4;overflow=hidden;rotatable=0;points=[[0,0.5],[1,0.5]];portConstraint=eastwest;fontColor=#1D3557;swimlaneLine=0;" parent="yh_sQvZe-Dtuo9pEbm0h-158" vertex="1">
          <mxGeometry y="128" width="200" height="26" as="geometry" />
        </mxCell>
        <mxCell id="yh_sQvZe-Dtuo9pEbm0h-166" value="" style="line;strokeWidth=1;fillColor=none;align=left;verticalAlign=middle;spacingTop=-1;spacingLeft=3;spacingRight=3;rotatable=0;labelPosition=right;points=[];portConstraint=eastwest;strokeColor=#457B9D;rounded=1;labelBackgroundColor=#F1FAEE;fontColor=#1D3557;swimlaneLine=0;" parent="yh_sQvZe-Dtuo9pEbm0h-158" vertex="1">
          <mxGeometry y="154" width="200" height="8" as="geometry" />
        </mxCell>
        <mxCell id="yh_sQvZe-Dtuo9pEbm0h-167" value="+ submitTime: Date" style="text;strokeColor=none;fillColor=none;align=left;verticalAlign=top;spacingLeft=4;spacingRight=4;overflow=hidden;rotatable=0;points=[[0,0.5],[1,0.5]];portConstraint=eastwest;fontColor=#1D3557;swimlaneLine=0;" parent="yh_sQvZe-Dtuo9pEbm0h-158" vertex="1">
          <mxGeometry y="162" width="200" height="26" as="geometry" />
        </mxCell>
        <mxCell id="yh_sQvZe-Dtuo9pEbm0h-168" value="" style="line;strokeWidth=1;fillColor=none;align=left;verticalAlign=middle;spacingTop=-1;spacingLeft=3;spacingRight=3;rotatable=0;labelPosition=right;points=[];portConstraint=eastwest;strokeColor=#457B9D;rounded=1;labelBackgroundColor=#F1FAEE;fontColor=#1D3557;swimlaneLine=0;" parent="yh_sQvZe-Dtuo9pEbm0h-158" vertex="1">
          <mxGeometry y="188" width="200" height="8" as="geometry" />
        </mxCell>
        <mxCell id="yh_sQvZe-Dtuo9pEbm0h-169" value="+ points: Number" style="text;strokeColor=none;fillColor=none;align=left;verticalAlign=top;spacingLeft=4;spacingRight=4;overflow=hidden;rotatable=0;points=[[0,0.5],[1,0.5]];portConstraint=eastwest;fontColor=#1D3557;swimlaneLine=0;" parent="yh_sQvZe-Dtuo9pEbm0h-158" vertex="1">
          <mxGeometry y="196" width="200" height="26" as="geometry" />
        </mxCell>
        <mxCell id="yh_sQvZe-Dtuo9pEbm0h-170" value="" style="line;strokeWidth=1;fillColor=none;align=left;verticalAlign=middle;spacingTop=-1;spacingLeft=3;spacingRight=3;rotatable=0;labelPosition=right;points=[];portConstraint=eastwest;strokeColor=#457B9D;rounded=1;labelBackgroundColor=#F1FAEE;fontColor=#1D3557;swimlaneLine=0;" parent="yh_sQvZe-Dtuo9pEbm0h-158" vertex="1">
          <mxGeometry y="222" width="200" height="8" as="geometry" />
        </mxCell>
        <mxCell id="yh_sQvZe-Dtuo9pEbm0h-171" value="+ status: String" style="text;strokeColor=none;fillColor=none;align=left;verticalAlign=top;spacingLeft=4;spacingRight=4;overflow=hidden;rotatable=0;points=[[0,0.5],[1,0.5]];portConstraint=eastwest;fontColor=#1D3557;swimlaneLine=0;" parent="yh_sQvZe-Dtuo9pEbm0h-158" vertex="1">
          <mxGeometry y="230" width="200" height="26" as="geometry" />
        </mxCell>
        <mxCell id="yh_sQvZe-Dtuo9pEbm0h-172" value="" style="line;strokeWidth=1;fillColor=none;align=left;verticalAlign=middle;spacingTop=-1;spacingLeft=3;spacingRight=3;rotatable=0;labelPosition=right;points=[];portConstraint=eastwest;strokeColor=#457B9D;rounded=1;labelBackgroundColor=#F1FAEE;fontColor=#1D3557;swimlaneLine=0;" parent="yh_sQvZe-Dtuo9pEbm0h-158" vertex="1">
          <mxGeometry y="256" width="200" height="8" as="geometry" />
        </mxCell>
        <mxCell id="yh_sQvZe-Dtuo9pEbm0h-173" value="+ result: ArrayObject" style="text;strokeColor=none;fillColor=none;align=left;verticalAlign=top;spacingLeft=4;spacingRight=4;overflow=hidden;rotatable=0;points=[[0,0.5],[1,0.5]];portConstraint=eastwest;fontColor=#1D3557;swimlaneLine=0;" parent="yh_sQvZe-Dtuo9pEbm0h-158" vertex="1">
          <mxGeometry y="264" width="200" height="26" as="geometry" />
        </mxCell>
        <mxCell id="yh_sQvZe-Dtuo9pEbm0h-174" value="user" style="swimlane;fontStyle=1;align=center;verticalAlign=top;childLayout=stackLayout;horizontal=1;startSize=26;horizontalStack=0;resizeParent=1;resizeParentMax=0;resizeLast=0;collapsible=1;marginBottom=0;fillColor=#dae8fc;strokeColor=#6c8ebf;rounded=1;swimlaneLine=0;" parent="1" vertex="1">
          <mxGeometry x="430" y="604" width="200" height="596" as="geometry" />
        </mxCell>
        <mxCell id="yh_sQvZe-Dtuo9pEbm0h-175" value="+ id: ObjectId" style="text;strokeColor=none;fillColor=none;align=left;verticalAlign=top;spacingLeft=4;spacingRight=4;overflow=hidden;rotatable=0;points=[[0,0.5],[1,0.5]];portConstraint=eastwest;fontColor=#1D3557;swimlaneLine=0;" parent="yh_sQvZe-Dtuo9pEbm0h-174" vertex="1">
          <mxGeometry y="26" width="200" height="26" as="geometry" />
        </mxCell>
        <mxCell id="yh_sQvZe-Dtuo9pEbm0h-176" value="" style="line;strokeWidth=1;fillColor=none;align=left;verticalAlign=middle;spacingTop=-1;spacingLeft=3;spacingRight=3;rotatable=0;labelPosition=right;points=[];portConstraint=eastwest;strokeColor=#457B9D;rounded=1;fontColor=#1D3557;swimlaneLine=0;labelBackgroundColor=#F1FAEE;" parent="yh_sQvZe-Dtuo9pEbm0h-174" vertex="1">
          <mxGeometry y="52" width="200" height="8" as="geometry" />
        </mxCell>
        <mxCell id="yh_sQvZe-Dtuo9pEbm0h-177" value="+ username: String" style="text;strokeColor=none;fillColor=none;align=left;verticalAlign=top;spacingLeft=4;spacingRight=4;overflow=hidden;rotatable=0;points=[[0,0.5],[1,0.5]];portConstraint=eastwest;fontColor=#1D3557;swimlaneLine=0;" parent="yh_sQvZe-Dtuo9pEbm0h-174" vertex="1">
          <mxGeometry y="60" width="200" height="26" as="geometry" />
        </mxCell>
        <mxCell id="yh_sQvZe-Dtuo9pEbm0h-178" value="" style="line;strokeWidth=1;fillColor=none;align=left;verticalAlign=middle;spacingTop=-1;spacingLeft=3;spacingRight=3;rotatable=0;labelPosition=right;points=[];portConstraint=eastwest;strokeColor=#457B9D;rounded=1;fontColor=#1D3557;swimlaneLine=0;labelBackgroundColor=#F1FAEE;" parent="yh_sQvZe-Dtuo9pEbm0h-174" vertex="1">
          <mxGeometry y="86" width="200" height="8" as="geometry" />
        </mxCell>
        <mxCell id="yh_sQvZe-Dtuo9pEbm0h-179" value="+ password: String" style="text;strokeColor=none;fillColor=none;align=left;verticalAlign=top;spacingLeft=4;spacingRight=4;overflow=hidden;rotatable=0;points=[[0,0.5],[1,0.5]];portConstraint=eastwest;fontColor=#1D3557;swimlaneLine=0;" parent="yh_sQvZe-Dtuo9pEbm0h-174" vertex="1">
          <mxGeometry y="94" width="200" height="26" as="geometry" />
        </mxCell>
        <mxCell id="yh_sQvZe-Dtuo9pEbm0h-180" value="" style="line;strokeWidth=1;fillColor=none;align=left;verticalAlign=middle;spacingTop=-1;spacingLeft=3;spacingRight=3;rotatable=0;labelPosition=right;points=[];portConstraint=eastwest;strokeColor=#457B9D;rounded=1;fontColor=#1D3557;swimlaneLine=0;labelBackgroundColor=#F1FAEE;" parent="yh_sQvZe-Dtuo9pEbm0h-174" vertex="1">
          <mxGeometry y="120" width="200" height="8" as="geometry" />
        </mxCell>
        <mxCell id="yh_sQvZe-Dtuo9pEbm0h-181" value="+ email: String" style="text;strokeColor=none;fillColor=none;align=left;verticalAlign=top;spacingLeft=4;spacingRight=4;overflow=hidden;rotatable=0;points=[[0,0.5],[1,0.5]];portConstraint=eastwest;fontColor=#1D3557;swimlaneLine=0;" parent="yh_sQvZe-Dtuo9pEbm0h-174" vertex="1">
          <mxGeometry y="128" width="200" height="26" as="geometry" />
        </mxCell>
        <mxCell id="yh_sQvZe-Dtuo9pEbm0h-182" value="" style="line;strokeWidth=1;fillColor=none;align=left;verticalAlign=middle;spacingTop=-1;spacingLeft=3;spacingRight=3;rotatable=0;labelPosition=right;points=[];portConstraint=eastwest;strokeColor=#457B9D;rounded=1;fontColor=#1D3557;swimlaneLine=0;labelBackgroundColor=#F1FAEE;" parent="yh_sQvZe-Dtuo9pEbm0h-174" vertex="1">
          <mxGeometry y="154" width="200" height="8" as="geometry" />
        </mxCell>
        <mxCell id="yh_sQvZe-Dtuo9pEbm0h-183" value="+ role: String" style="text;strokeColor=none;fillColor=none;align=left;verticalAlign=top;spacingLeft=4;spacingRight=4;overflow=hidden;rotatable=0;points=[[0,0.5],[1,0.5]];portConstraint=eastwest;fontColor=#1D3557;swimlaneLine=0;" parent="yh_sQvZe-Dtuo9pEbm0h-174" vertex="1">
          <mxGeometry y="162" width="200" height="26" as="geometry" />
        </mxCell>
        <mxCell id="yh_sQvZe-Dtuo9pEbm0h-184" value="" style="line;strokeWidth=1;fillColor=none;align=left;verticalAlign=middle;spacingTop=-1;spacingLeft=3;spacingRight=3;rotatable=0;labelPosition=right;points=[];portConstraint=eastwest;strokeColor=#457B9D;rounded=1;fontColor=#1D3557;swimlaneLine=0;labelBackgroundColor=#F1FAEE;" parent="yh_sQvZe-Dtuo9pEbm0h-174" vertex="1">
          <mxGeometry y="188" width="200" height="8" as="geometry" />
        </mxCell>
        <mxCell id="yh_sQvZe-Dtuo9pEbm0h-185" value="+ fullname: String" style="text;strokeColor=none;fillColor=none;align=left;verticalAlign=top;spacingLeft=4;spacingRight=4;overflow=hidden;rotatable=0;points=[[0,0.5],[1,0.5]];portConstraint=eastwest;fontColor=#1D3557;swimlaneLine=0;" parent="yh_sQvZe-Dtuo9pEbm0h-174" vertex="1">
          <mxGeometry y="196" width="200" height="26" as="geometry" />
        </mxCell>
        <mxCell id="yh_sQvZe-Dtuo9pEbm0h-186" value="" style="line;strokeWidth=1;fillColor=none;align=left;verticalAlign=middle;spacingTop=-1;spacingLeft=3;spacingRight=3;rotatable=0;labelPosition=right;points=[];portConstraint=eastwest;strokeColor=#457B9D;rounded=1;fontColor=#1D3557;swimlaneLine=0;labelBackgroundColor=#F1FAEE;" parent="yh_sQvZe-Dtuo9pEbm0h-174" vertex="1">
          <mxGeometry y="222" width="200" height="8" as="geometry" />
        </mxCell>
        <mxCell id="yh_sQvZe-Dtuo9pEbm0h-187" value="+ avatar: String" style="text;strokeColor=none;fillColor=none;align=left;verticalAlign=top;spacingLeft=4;spacingRight=4;overflow=hidden;rotatable=0;points=[[0,0.5],[1,0.5]];portConstraint=eastwest;fontColor=#1D3557;swimlaneLine=0;" parent="yh_sQvZe-Dtuo9pEbm0h-174" vertex="1">
          <mxGeometry y="230" width="200" height="26" as="geometry" />
        </mxCell>
        <mxCell id="yh_sQvZe-Dtuo9pEbm0h-188" value="" style="line;strokeWidth=1;fillColor=none;align=left;verticalAlign=middle;spacingTop=-1;spacingLeft=3;spacingRight=3;rotatable=0;labelPosition=right;points=[];portConstraint=eastwest;strokeColor=#457B9D;rounded=1;fontColor=#1D3557;swimlaneLine=0;labelBackgroundColor=#F1FAEE;" parent="yh_sQvZe-Dtuo9pEbm0h-174" vertex="1">
          <mxGeometry y="256" width="200" height="8" as="geometry" />
        </mxCell>
        <mxCell id="yh_sQvZe-Dtuo9pEbm0h-189" value="+ status: String" style="text;strokeColor=none;fillColor=none;align=left;verticalAlign=top;spacingLeft=4;spacingRight=4;overflow=hidden;rotatable=0;points=[[0,0.5],[1,0.5]];portConstraint=eastwest;fontColor=#1D3557;swimlaneLine=0;" parent="yh_sQvZe-Dtuo9pEbm0h-174" vertex="1">
          <mxGeometry y="264" width="200" height="26" as="geometry" />
        </mxCell>
        <mxCell id="yh_sQvZe-Dtuo9pEbm0h-190" value="" style="line;strokeWidth=1;fillColor=none;align=left;verticalAlign=middle;spacingTop=-1;spacingLeft=3;spacingRight=3;rotatable=0;labelPosition=right;points=[];portConstraint=eastwest;strokeColor=#457B9D;rounded=1;fontColor=#1D3557;swimlaneLine=0;labelBackgroundColor=#F1FAEE;" parent="yh_sQvZe-Dtuo9pEbm0h-174" vertex="1">
          <mxGeometry y="290" width="200" height="8" as="geometry" />
        </mxCell>
        <mxCell id="yh_sQvZe-Dtuo9pEbm0h-191" value="+ birthday: Date" style="text;strokeColor=none;fillColor=none;align=left;verticalAlign=top;spacingLeft=4;spacingRight=4;overflow=hidden;rotatable=0;points=[[0,0.5],[1,0.5]];portConstraint=eastwest;fontColor=#1D3557;swimlaneLine=0;" parent="yh_sQvZe-Dtuo9pEbm0h-174" vertex="1">
          <mxGeometry y="298" width="200" height="26" as="geometry" />
        </mxCell>
        <mxCell id="yh_sQvZe-Dtuo9pEbm0h-192" value="" style="line;strokeWidth=1;fillColor=none;align=left;verticalAlign=middle;spacingTop=-1;spacingLeft=3;spacingRight=3;rotatable=0;labelPosition=right;points=[];portConstraint=eastwest;strokeColor=#457B9D;rounded=1;fontColor=#1D3557;swimlaneLine=0;labelBackgroundColor=#F1FAEE;" parent="yh_sQvZe-Dtuo9pEbm0h-174" vertex="1">
          <mxGeometry y="324" width="200" height="8" as="geometry" />
        </mxCell>
        <mxCell id="yh_sQvZe-Dtuo9pEbm0h-193" value="+ balance: Number" style="text;strokeColor=none;fillColor=none;align=left;verticalAlign=top;spacingLeft=4;spacingRight=4;overflow=hidden;rotatable=0;points=[[0,0.5],[1,0.5]];portConstraint=eastwest;fontColor=#1D3557;swimlaneLine=0;" parent="yh_sQvZe-Dtuo9pEbm0h-174" vertex="1">
          <mxGeometry y="332" width="200" height="26" as="geometry" />
        </mxCell>
        <mxCell id="yh_sQvZe-Dtuo9pEbm0h-194" value="" style="line;strokeWidth=1;fillColor=none;align=left;verticalAlign=middle;spacingTop=-1;spacingLeft=3;spacingRight=3;rotatable=0;labelPosition=right;points=[];portConstraint=eastwest;strokeColor=#457B9D;rounded=1;fontColor=#1D3557;swimlaneLine=0;labelBackgroundColor=#F1FAEE;" parent="yh_sQvZe-Dtuo9pEbm0h-174" vertex="1">
          <mxGeometry y="358" width="200" height="8" as="geometry" />
        </mxCell>
        <mxCell id="yh_sQvZe-Dtuo9pEbm0h-195" value="+ type: String" style="text;strokeColor=none;fillColor=none;align=left;verticalAlign=top;spacingLeft=4;spacingRight=4;overflow=hidden;rotatable=0;points=[[0,0.5],[1,0.5]];portConstraint=eastwest;fontColor=#1D3557;swimlaneLine=0;" parent="yh_sQvZe-Dtuo9pEbm0h-174" vertex="1">
          <mxGeometry y="366" width="200" height="26" as="geometry" />
        </mxCell>
        <mxCell id="yh_sQvZe-Dtuo9pEbm0h-196" value="" style="line;strokeWidth=1;fillColor=none;align=left;verticalAlign=middle;spacingTop=-1;spacingLeft=3;spacingRight=3;rotatable=0;labelPosition=right;points=[];portConstraint=eastwest;strokeColor=#457B9D;rounded=1;fontColor=#1D3557;swimlaneLine=0;labelBackgroundColor=#F1FAEE;" parent="yh_sQvZe-Dtuo9pEbm0h-174" vertex="1">
          <mxGeometry y="392" width="200" height="8" as="geometry" />
        </mxCell>
        <mxCell id="yh_sQvZe-Dtuo9pEbm0h-197" value="+ socialId: String" style="text;strokeColor=none;fillColor=none;align=left;verticalAlign=top;spacingLeft=4;spacingRight=4;overflow=hidden;rotatable=0;points=[[0,0.5],[1,0.5]];portConstraint=eastwest;fontColor=#1D3557;swimlaneLine=0;" parent="yh_sQvZe-Dtuo9pEbm0h-174" vertex="1">
          <mxGeometry y="400" width="200" height="26" as="geometry" />
        </mxCell>
        <mxCell id="yh_sQvZe-Dtuo9pEbm0h-198" value="" style="line;strokeWidth=1;fillColor=none;align=left;verticalAlign=middle;spacingTop=-1;spacingLeft=3;spacingRight=3;rotatable=0;labelPosition=right;points=[];portConstraint=eastwest;strokeColor=#457B9D;rounded=1;fontColor=#1D3557;swimlaneLine=0;labelBackgroundColor=#F1FAEE;" parent="yh_sQvZe-Dtuo9pEbm0h-174" vertex="1">
          <mxGeometry y="426" width="200" height="8" as="geometry" />
        </mxCell>
        <mxCell id="yh_sQvZe-Dtuo9pEbm0h-199" value="+ premium: Boolean" style="text;strokeColor=none;fillColor=none;align=left;verticalAlign=top;spacingLeft=4;spacingRight=4;overflow=hidden;rotatable=0;points=[[0,0.5],[1,0.5]];portConstraint=eastwest;fontColor=#1D3557;swimlaneLine=0;" parent="yh_sQvZe-Dtuo9pEbm0h-174" vertex="1">
          <mxGeometry y="434" width="200" height="26" as="geometry" />
        </mxCell>
        <mxCell id="yh_sQvZe-Dtuo9pEbm0h-200" value="" style="line;strokeWidth=1;fillColor=none;align=left;verticalAlign=middle;spacingTop=-1;spacingLeft=3;spacingRight=3;rotatable=0;labelPosition=right;points=[];portConstraint=eastwest;strokeColor=#457B9D;rounded=1;fontColor=#1D3557;swimlaneLine=0;labelBackgroundColor=#F1FAEE;" parent="yh_sQvZe-Dtuo9pEbm0h-174" vertex="1">
          <mxGeometry y="460" width="200" height="8" as="geometry" />
        </mxCell>
        <mxCell id="yh_sQvZe-Dtuo9pEbm0h-201" value="+ gender: String" style="text;strokeColor=none;fillColor=none;align=left;verticalAlign=top;spacingLeft=4;spacingRight=4;overflow=hidden;rotatable=0;points=[[0,0.5],[1,0.5]];portConstraint=eastwest;fontColor=#1D3557;swimlaneLine=0;" parent="yh_sQvZe-Dtuo9pEbm0h-174" vertex="1">
          <mxGeometry y="468" width="200" height="26" as="geometry" />
        </mxCell>
        <mxCell id="yh_sQvZe-Dtuo9pEbm0h-202" value="" style="line;strokeWidth=1;fillColor=none;align=left;verticalAlign=middle;spacingTop=-1;spacingLeft=3;spacingRight=3;rotatable=0;labelPosition=right;points=[];portConstraint=eastwest;strokeColor=#457B9D;rounded=1;fontColor=#1D3557;swimlaneLine=0;labelBackgroundColor=#F1FAEE;" parent="yh_sQvZe-Dtuo9pEbm0h-174" vertex="1">
          <mxGeometry y="494" width="200" height="8" as="geometry" />
        </mxCell>
        <mxCell id="yh_sQvZe-Dtuo9pEbm0h-203" value="+ phone: String" style="text;strokeColor=none;fillColor=none;align=left;verticalAlign=top;spacingLeft=4;spacingRight=4;overflow=hidden;rotatable=0;points=[[0,0.5],[1,0.5]];portConstraint=eastwest;fontColor=#1D3557;swimlaneLine=0;" parent="yh_sQvZe-Dtuo9pEbm0h-174" vertex="1">
          <mxGeometry y="502" width="200" height="26" as="geometry" />
        </mxCell>
        <mxCell id="yh_sQvZe-Dtuo9pEbm0h-204" value="" style="line;strokeWidth=1;fillColor=none;align=left;verticalAlign=middle;spacingTop=-1;spacingLeft=3;spacingRight=3;rotatable=0;labelPosition=right;points=[];portConstraint=eastwest;strokeColor=#457B9D;rounded=1;fontColor=#1D3557;swimlaneLine=0;labelBackgroundColor=#F1FAEE;" parent="yh_sQvZe-Dtuo9pEbm0h-174" vertex="1">
          <mxGeometry y="528" width="200" height="8" as="geometry" />
        </mxCell>
        <mxCell id="yh_sQvZe-Dtuo9pEbm0h-205" value="+ addres: String" style="text;strokeColor=none;fillColor=none;align=left;verticalAlign=top;spacingLeft=4;spacingRight=4;overflow=hidden;rotatable=0;points=[[0,0.5],[1,0.5]];portConstraint=eastwest;fontColor=#1D3557;swimlaneLine=0;" parent="yh_sQvZe-Dtuo9pEbm0h-174" vertex="1">
          <mxGeometry y="536" width="200" height="26" as="geometry" />
        </mxCell>
        <mxCell id="yh_sQvZe-Dtuo9pEbm0h-206" value="" style="line;strokeWidth=1;fillColor=none;align=left;verticalAlign=middle;spacingTop=-1;spacingLeft=3;spacingRight=3;rotatable=0;labelPosition=right;points=[];portConstraint=eastwest;strokeColor=#457B9D;rounded=1;fontColor=#1D3557;swimlaneLine=0;labelBackgroundColor=#F1FAEE;" parent="yh_sQvZe-Dtuo9pEbm0h-174" vertex="1">
          <mxGeometry y="562" width="200" height="8" as="geometry" />
        </mxCell>
        <mxCell id="yh_sQvZe-Dtuo9pEbm0h-207" value="+ school: String" style="text;strokeColor=none;fillColor=none;align=left;verticalAlign=top;spacingLeft=4;spacingRight=4;overflow=hidden;rotatable=0;points=[[0,0.5],[1,0.5]];portConstraint=eastwest;fontColor=#1D3557;swimlaneLine=0;" parent="yh_sQvZe-Dtuo9pEbm0h-174" vertex="1">
          <mxGeometry y="570" width="200" height="26" as="geometry" />
        </mxCell>
        <mxCell id="yh_sQvZe-Dtuo9pEbm0h-208" style="edgeStyle=orthogonalEdgeStyle;rounded=0;orthogonalLoop=1;jettySize=auto;html=1;entryX=0;entryY=0.5;entryDx=0;entryDy=0;strokeColor=#457B9D;fontColor=#1D3557;fillColor=#A8DADC;endArrow=none;endFill=0;startArrow=ERmany;startFill=0;swimlaneLine=0;labelBackgroundColor=#F1FAEE;" parent="1" source="yh_sQvZe-Dtuo9pEbm0h-175" target="yh_sQvZe-Dtuo9pEbm0h-68" edge="1">
          <mxGeometry relative="1" as="geometry">
            <Array as="points">
              <mxPoint x="410" y="644" />
              <mxPoint x="410" y="385" />
            </Array>
          </mxGeometry>
        </mxCell>
        <mxCell id="yh_sQvZe-Dtuo9pEbm0h-209" style="edgeStyle=orthogonalEdgeStyle;rounded=0;orthogonalLoop=1;jettySize=auto;html=1;strokeColor=#457B9D;fontColor=#1D3557;fillColor=#A8DADC;endArrow=none;endFill=0;swimlaneLine=0;labelBackgroundColor=#F1FAEE;" parent="1" source="yh_sQvZe-Dtuo9pEbm0h-60" target="yh_sQvZe-Dtuo9pEbm0h-175" edge="1">
          <mxGeometry relative="1" as="geometry">
            <Array as="points">
              <mxPoint x="370" y="249" />
              <mxPoint x="370" y="643" />
            </Array>
          </mxGeometry>
        </mxCell>
        <mxCell id="yh_sQvZe-Dtuo9pEbm0h-210" style="edgeStyle=orthogonalEdgeStyle;rounded=0;orthogonalLoop=1;jettySize=auto;html=1;entryX=0;entryY=0.5;entryDx=0;entryDy=0;strokeColor=#457B9D;fontColor=#1D3557;fillColor=#A8DADC;endArrow=ERmany;endFill=0;swimlaneLine=0;labelBackgroundColor=#F1FAEE;" parent="1" source="yh_sQvZe-Dtuo9pEbm0h-64" target="yh_sQvZe-Dtuo9pEbm0h-76" edge="1">
          <mxGeometry relative="1" as="geometry">
            <Array as="points">
              <mxPoint x="660" y="317" />
              <mxPoint x="660" y="79" />
            </Array>
          </mxGeometry>
        </mxCell>
        <mxCell id="yh_sQvZe-Dtuo9pEbm0h-211" style="edgeStyle=orthogonalEdgeStyle;rounded=0;orthogonalLoop=1;jettySize=auto;html=1;entryX=1;entryY=0.5;entryDx=0;entryDy=0;strokeColor=#457B9D;fontColor=#1D3557;startArrow=none;startFill=0;endArrow=ERmany;endFill=0;fillColor=#A8DADC;swimlaneLine=0;labelBackgroundColor=#F1FAEE;" parent="1" source="yh_sQvZe-Dtuo9pEbm0h-88" target="yh_sQvZe-Dtuo9pEbm0h-121" edge="1">
          <mxGeometry relative="1" as="geometry">
            <Array as="points">
              <mxPoint x="950" y="283" />
              <mxPoint x="950" y="750" />
            </Array>
          </mxGeometry>
        </mxCell>
        <mxCell id="yh_sQvZe-Dtuo9pEbm0h-212" style="edgeStyle=orthogonalEdgeStyle;rounded=0;orthogonalLoop=1;jettySize=auto;html=1;entryX=1;entryY=0.5;entryDx=0;entryDy=0;strokeColor=#457B9D;fontColor=#1D3557;startArrow=none;startFill=0;endArrow=ERmany;endFill=0;fillColor=#A8DADC;swimlaneLine=0;labelBackgroundColor=#F1FAEE;" parent="1" source="yh_sQvZe-Dtuo9pEbm0h-141" target="yh_sQvZe-Dtuo9pEbm0h-121" edge="1">
          <mxGeometry relative="1" as="geometry">
            <Array as="points">
              <mxPoint x="950" y="1229" />
              <mxPoint x="950" y="750" />
            </Array>
          </mxGeometry>
        </mxCell>
        <mxCell id="yh_sQvZe-Dtuo9pEbm0h-213" style="edgeStyle=orthogonalEdgeStyle;rounded=0;orthogonalLoop=1;jettySize=auto;html=1;entryX=1;entryY=0.5;entryDx=0;entryDy=0;strokeColor=#457B9D;fontColor=#1D3557;startArrow=ERmany;startFill=0;endArrow=none;endFill=0;fillColor=#A8DADC;swimlaneLine=0;labelBackgroundColor=#F1FAEE;" parent="1" source="yh_sQvZe-Dtuo9pEbm0h-161" target="yh_sQvZe-Dtuo9pEbm0h-76" edge="1">
          <mxGeometry relative="1" as="geometry" />
        </mxCell>
        <mxCell id="yh_sQvZe-Dtuo9pEbm0h-214" style="edgeStyle=orthogonalEdgeStyle;rounded=0;orthogonalLoop=1;jettySize=auto;html=1;strokeColor=#457B9D;fontColor=#1D3557;startArrow=none;startFill=0;endArrow=ERmany;endFill=0;fillColor=#A8DADC;swimlaneLine=0;labelBackgroundColor=#F1FAEE;" parent="1" source="yh_sQvZe-Dtuo9pEbm0h-127" target="yh_sQvZe-Dtuo9pEbm0h-2" edge="1">
          <mxGeometry relative="1" as="geometry" />
        </mxCell>
        <mxCell id="yh_sQvZe-Dtuo9pEbm0h-215" style="edgeStyle=orthogonalEdgeStyle;rounded=0;orthogonalLoop=1;jettySize=auto;html=1;entryX=1;entryY=0.5;entryDx=0;entryDy=0;strokeColor=#457B9D;fontColor=#1D3557;startArrow=none;startFill=0;endArrow=ERmany;endFill=0;fillColor=#A8DADC;swimlaneLine=0;labelBackgroundColor=#F1FAEE;" parent="1" source="yh_sQvZe-Dtuo9pEbm0h-66" target="yh_sQvZe-Dtuo9pEbm0h-22" edge="1">
          <mxGeometry relative="1" as="geometry">
            <Array as="points">
              <mxPoint x="330" y="351" />
              <mxPoint x="330" y="79" />
            </Array>
          </mxGeometry>
        </mxCell>
        <mxCell id="yh_sQvZe-Dtuo9pEbm0h-216" style="edgeStyle=orthogonalEdgeStyle;rounded=0;orthogonalLoop=1;jettySize=auto;html=1;entryX=0;entryY=0.5;entryDx=0;entryDy=0;strokeColor=#457B9D;fontColor=#1D3557;startArrow=none;startFill=0;endArrow=ERmany;endFill=0;fillColor=#A8DADC;exitX=0;exitY=0.5;exitDx=0;exitDy=0;swimlaneLine=0;labelBackgroundColor=#F1FAEE;" parent="1" source="yh_sQvZe-Dtuo9pEbm0h-147" target="yh_sQvZe-Dtuo9pEbm0h-22" edge="1">
          <mxGeometry relative="1" as="geometry">
            <Array as="points">
              <mxPoint x="70" y="694" />
              <mxPoint x="40" y="694" />
              <mxPoint x="40" y="79" />
            </Array>
          </mxGeometry>
        </mxCell>
        <mxCell id="yh_sQvZe-Dtuo9pEbm0h-217" style="edgeStyle=orthogonalEdgeStyle;rounded=0;orthogonalLoop=1;jettySize=auto;html=1;entryX=0;entryY=0.5;entryDx=0;entryDy=0;strokeColor=#457B9D;fontColor=#1D3557;startArrow=none;startFill=0;endArrow=none;endFill=0;fillColor=#A8DADC;swimlaneLine=0;labelBackgroundColor=#F1FAEE;" parent="1" source="yh_sQvZe-Dtuo9pEbm0h-28" target="yh_sQvZe-Dtuo9pEbm0h-175" edge="1">
          <mxGeometry relative="1" as="geometry">
            <Array as="points">
              <mxPoint x="290" y="181" />
              <mxPoint x="290" y="643" />
            </Array>
          </mxGeometry>
        </mxCell>
        <mxCell id="yh_sQvZe-Dtuo9pEbm0h-218" style="edgeStyle=orthogonalEdgeStyle;rounded=0;orthogonalLoop=1;jettySize=auto;html=1;entryX=1;entryY=0.5;entryDx=0;entryDy=0;strokeColor=#457B9D;fontColor=#1D3557;startArrow=none;startFill=0;endArrow=none;endFill=0;fillColor=#A8DADC;swimlaneLine=0;labelBackgroundColor=#F1FAEE;" parent="1" source="yh_sQvZe-Dtuo9pEbm0h-84" target="yh_sQvZe-Dtuo9pEbm0h-175" edge="1">
          <mxGeometry relative="1" as="geometry">
            <Array as="points">
              <mxPoint x="680" y="215" />
              <mxPoint x="680" y="623" />
              <mxPoint x="630" y="623" />
            </Array>
          </mxGeometry>
        </mxCell>
        <mxCell id="yh_sQvZe-Dtuo9pEbm0h-219" style="edgeStyle=orthogonalEdgeStyle;rounded=0;orthogonalLoop=1;jettySize=auto;html=1;strokeColor=#457B9D;fontColor=#1D3557;startArrow=none;startFill=0;endArrow=none;endFill=0;fillColor=#A8DADC;swimlaneLine=0;labelBackgroundColor=#F1FAEE;" parent="1" source="yh_sQvZe-Dtuo9pEbm0h-10" target="yh_sQvZe-Dtuo9pEbm0h-175" edge="1">
          <mxGeometry relative="1" as="geometry">
            <Array as="points">
              <mxPoint x="350" y="1361" />
              <mxPoint x="350" y="644" />
            </Array>
          </mxGeometry>
        </mxCell>
        <mxCell id="yh_sQvZe-Dtuo9pEbm0h-220" style="edgeStyle=orthogonalEdgeStyle;rounded=0;orthogonalLoop=1;jettySize=auto;html=1;strokeColor=#457B9D;fontColor=#1D3557;startArrow=none;startFill=0;endArrow=none;endFill=0;fillColor=#A8DADC;swimlaneLine=0;labelBackgroundColor=#F1FAEE;" parent="1" source="yh_sQvZe-Dtuo9pEbm0h-139" target="yh_sQvZe-Dtuo9pEbm0h-175" edge="1">
          <mxGeometry relative="1" as="geometry">
            <Array as="points">
              <mxPoint x="670" y="1195" />
              <mxPoint x="670" y="643" />
            </Array>
          </mxGeometry>
        </mxCell>
      </root>
    </mxGraphModel>
  </diagram>
  <diagram id="N4s9ZmUMEn5ld3Jrs4S0" name="Trang-2">
    <mxGraphModel dx="1500" dy="2084" grid="1" gridSize="10" guides="1" tooltips="1" connect="1" arrows="1" fold="1" page="1" pageScale="1" pageWidth="1920" pageHeight="1200" math="0" shadow="0">
      <root>
        <mxCell id="0" />
        <mxCell id="1" parent="0" />
        <mxCell id="uoKoED1i7HbzLLPc3mZA-9" style="rounded=1;orthogonalLoop=1;jettySize=auto;html=1;edgeStyle=orthogonalEdgeStyle;" parent="1" source="uoKoED1i7HbzLLPc3mZA-1" edge="1">
          <mxGeometry relative="1" as="geometry">
            <mxPoint x="630" as="targetPoint" />
            <Array as="points">
              <mxPoint x="480" y="130" />
              <mxPoint x="480" />
              <mxPoint x="630" />
            </Array>
          </mxGeometry>
        </mxCell>
        <mxCell id="uoKoED1i7HbzLLPc3mZA-1" value="Học viên" style="shape=umlActor;verticalLabelPosition=bottom;verticalAlign=top;html=1;" parent="1" vertex="1">
          <mxGeometry x="400" y="100" width="30" height="60" as="geometry" />
        </mxCell>
        <mxCell id="uoKoED1i7HbzLLPc3mZA-2" value="Quản lý tài khoản" style="ellipse;whiteSpace=wrap;html=1;" parent="1" vertex="1">
          <mxGeometry x="630" y="-25" width="200" height="50" as="geometry" />
        </mxCell>
        <mxCell id="uoKoED1i7HbzLLPc3mZA-10" style="edgeStyle=orthogonalEdgeStyle;rounded=1;orthogonalLoop=1;jettySize=auto;html=1;entryX=0;entryY=0.5;entryDx=0;entryDy=0;" parent="1" source="uoKoED1i7HbzLLPc3mZA-3" target="uoKoED1i7HbzLLPc3mZA-2" edge="1">
          <mxGeometry relative="1" as="geometry">
            <Array as="points">
              <mxPoint x="480" y="510" />
              <mxPoint x="480" />
            </Array>
          </mxGeometry>
        </mxCell>
        <mxCell id="uoKoED1i7HbzLLPc3mZA-3" value="Giáo viên" style="shape=umlActor;verticalLabelPosition=bottom;verticalAlign=top;html=1;" parent="1" vertex="1">
          <mxGeometry x="400" y="480" width="30" height="60" as="geometry" />
        </mxCell>
        <mxCell id="uoKoED1i7HbzLLPc3mZA-7" style="edgeStyle=orthogonalEdgeStyle;rounded=0;orthogonalLoop=1;jettySize=auto;html=1;" parent="1" source="uoKoED1i7HbzLLPc3mZA-6" target="uoKoED1i7HbzLLPc3mZA-1" edge="1">
          <mxGeometry relative="1" as="geometry" />
        </mxCell>
        <mxCell id="uoKoED1i7HbzLLPc3mZA-8" style="edgeStyle=orthogonalEdgeStyle;rounded=0;orthogonalLoop=1;jettySize=auto;html=1;entryX=0.5;entryY=0;entryDx=0;entryDy=0;entryPerimeter=0;" parent="1" source="uoKoED1i7HbzLLPc3mZA-6" target="uoKoED1i7HbzLLPc3mZA-3" edge="1">
          <mxGeometry relative="1" as="geometry" />
        </mxCell>
        <mxCell id="uoKoED1i7HbzLLPc3mZA-6" value="Khách" style="shape=umlActor;verticalLabelPosition=bottom;verticalAlign=top;html=1;" parent="1" vertex="1">
          <mxGeometry x="400" y="290" width="30" height="60" as="geometry" />
        </mxCell>
        <mxCell id="uoKoED1i7HbzLLPc3mZA-11" value="Use Case" style="ellipse;whiteSpace=wrap;html=1;" parent="1" vertex="1">
          <mxGeometry x="160" y="290" width="140" height="70" as="geometry" />
        </mxCell>
        <mxCell id="uoKoED1i7HbzLLPc3mZA-16" style="rounded=1;orthogonalLoop=1;jettySize=auto;html=1;entryX=1;entryY=0.5;entryDx=0;entryDy=0;exitX=0;exitY=0.5;exitDx=0;exitDy=0;" parent="1" source="uoKoED1i7HbzLLPc3mZA-12" target="uoKoED1i7HbzLLPc3mZA-13" edge="1">
          <mxGeometry relative="1" as="geometry" />
        </mxCell>
        <mxCell id="uoKoED1i7HbzLLPc3mZA-12" value="Cập nhật mật khẩu" style="ellipse;whiteSpace=wrap;html=1;" parent="1" vertex="1">
          <mxGeometry x="800" y="-190" width="200" height="50" as="geometry" />
        </mxCell>
        <mxCell id="uoKoED1i7HbzLLPc3mZA-14" style="edgeStyle=orthogonalEdgeStyle;rounded=1;orthogonalLoop=1;jettySize=auto;html=1;" parent="1" source="uoKoED1i7HbzLLPc3mZA-13" target="uoKoED1i7HbzLLPc3mZA-2" edge="1">
          <mxGeometry relative="1" as="geometry" />
        </mxCell>
        <mxCell id="uoKoED1i7HbzLLPc3mZA-13" value="Cập nhật thông tin" style="ellipse;whiteSpace=wrap;html=1;" parent="1" vertex="1">
          <mxGeometry x="630" y="-145" width="140" height="50" as="geometry" />
        </mxCell>
        <mxCell id="uoKoED1i7HbzLLPc3mZA-17" style="rounded=1;orthogonalLoop=1;jettySize=auto;html=1;entryX=1;entryY=0.5;entryDx=0;entryDy=0;exitX=0;exitY=0.5;exitDx=0;exitDy=0;" parent="1" source="uoKoED1i7HbzLLPc3mZA-15" target="uoKoED1i7HbzLLPc3mZA-13" edge="1">
          <mxGeometry relative="1" as="geometry" />
        </mxCell>
        <mxCell id="uoKoED1i7HbzLLPc3mZA-15" value="Cập nhật thông tin cá nhân" style="ellipse;whiteSpace=wrap;html=1;" parent="1" vertex="1">
          <mxGeometry x="800" y="-100" width="200" height="50" as="geometry" />
        </mxCell>
        <mxCell id="uoKoED1i7HbzLLPc3mZA-19" value="Quản lý bài tập" style="ellipse;whiteSpace=wrap;html=1;" parent="1" vertex="1">
          <mxGeometry x="640" y="295" width="200" height="50" as="geometry" />
        </mxCell>
        <mxCell id="uoKoED1i7HbzLLPc3mZA-22" value="Quản lý câu hỏi" style="ellipse;whiteSpace=wrap;html=1;" parent="1" vertex="1">
          <mxGeometry x="1320" y="220" width="200" height="50" as="geometry" />
        </mxCell>
        <mxCell id="uoKoED1i7HbzLLPc3mZA-23" value="Quản lý câu trả lời" style="ellipse;whiteSpace=wrap;html=1;" parent="1" vertex="1">
          <mxGeometry x="1530" y="295" width="200" height="50" as="geometry" />
        </mxCell>
        <mxCell id="uoKoED1i7HbzLLPc3mZA-24" value="Quản lý khóa học" style="ellipse;whiteSpace=wrap;html=1;" parent="1" vertex="1">
          <mxGeometry x="640" y="460" width="200" height="50" as="geometry" />
        </mxCell>
        <mxCell id="uoKoED1i7HbzLLPc3mZA-25" value="Quản lý ngân hàng câu hỏi" style="ellipse;whiteSpace=wrap;html=1;" parent="1" vertex="1">
          <mxGeometry x="640" y="95" width="200" height="50" as="geometry" />
        </mxCell>
        <mxCell id="uoKoED1i7HbzLLPc3mZA-26" value="Quản lý bài kiểm tra" style="ellipse;whiteSpace=wrap;html=1;" parent="1" vertex="1">
          <mxGeometry x="640" y="210" width="200" height="50" as="geometry" />
        </mxCell>
        <mxCell id="uoKoED1i7HbzLLPc3mZA-30" style="edgeStyle=none;rounded=1;orthogonalLoop=1;jettySize=auto;html=1;entryX=0.5;entryY=0;entryDx=0;entryDy=0;exitX=1;exitY=0.5;exitDx=0;exitDy=0;" parent="1" source="uoKoED1i7HbzLLPc3mZA-27" target="uoKoED1i7HbzLLPc3mZA-24" edge="1">
          <mxGeometry relative="1" as="geometry" />
        </mxCell>
        <mxCell id="uoKoED1i7HbzLLPc3mZA-27" value="Tạo khóa học" style="ellipse;whiteSpace=wrap;html=1;" parent="1" vertex="1">
          <mxGeometry x="500" y="390" width="200" height="50" as="geometry" />
        </mxCell>
        <mxCell id="uoKoED1i7HbzLLPc3mZA-31" style="edgeStyle=none;rounded=1;orthogonalLoop=1;jettySize=auto;html=1;entryX=0.5;entryY=0;entryDx=0;entryDy=0;exitX=0;exitY=0.5;exitDx=0;exitDy=0;" parent="1" source="uoKoED1i7HbzLLPc3mZA-28" target="uoKoED1i7HbzLLPc3mZA-24" edge="1">
          <mxGeometry relative="1" as="geometry" />
        </mxCell>
        <mxCell id="uoKoED1i7HbzLLPc3mZA-28" value="Cập nhật khóa học" style="ellipse;whiteSpace=wrap;html=1;" parent="1" vertex="1">
          <mxGeometry x="800" y="390" width="200" height="50" as="geometry" />
        </mxCell>
        <mxCell id="uoKoED1i7HbzLLPc3mZA-34" style="edgeStyle=none;rounded=1;orthogonalLoop=1;jettySize=auto;html=1;entryX=1;entryY=0.5;entryDx=0;entryDy=0;" parent="1" source="uoKoED1i7HbzLLPc3mZA-29" target="uoKoED1i7HbzLLPc3mZA-28" edge="1">
          <mxGeometry relative="1" as="geometry" />
        </mxCell>
        <mxCell id="uoKoED1i7HbzLLPc3mZA-29" value="Cập nhật thông tin khóa học" style="ellipse;whiteSpace=wrap;html=1;" parent="1" vertex="1">
          <mxGeometry x="1220" y="345" width="200" height="50" as="geometry" />
        </mxCell>
        <mxCell id="uoKoED1i7HbzLLPc3mZA-33" style="edgeStyle=none;rounded=1;orthogonalLoop=1;jettySize=auto;html=1;entryX=1;entryY=0.5;entryDx=0;entryDy=0;exitX=0;exitY=0.5;exitDx=0;exitDy=0;" parent="1" source="uoKoED1i7HbzLLPc3mZA-32" target="uoKoED1i7HbzLLPc3mZA-28" edge="1">
          <mxGeometry relative="1" as="geometry" />
        </mxCell>
        <mxCell id="uoKoED1i7HbzLLPc3mZA-32" value="Quản lý sinh viên trong khoá học" style="ellipse;whiteSpace=wrap;html=1;" parent="1" vertex="1">
          <mxGeometry x="1010" y="450" width="200" height="50" as="geometry" />
        </mxCell>
        <mxCell id="uoKoED1i7HbzLLPc3mZA-44" style="edgeStyle=none;rounded=1;orthogonalLoop=1;jettySize=auto;html=1;entryX=0.5;entryY=1;entryDx=0;entryDy=0;exitX=0.5;exitY=0;exitDx=0;exitDy=0;" parent="1" source="uoKoED1i7HbzLLPc3mZA-35" target="uoKoED1i7HbzLLPc3mZA-41" edge="1">
          <mxGeometry relative="1" as="geometry" />
        </mxCell>
        <mxCell id="uoKoED1i7HbzLLPc3mZA-35" value="Thêm bài tập" style="ellipse;whiteSpace=wrap;html=1;" parent="1" vertex="1">
          <mxGeometry x="40" y="840" width="200" height="50" as="geometry" />
        </mxCell>
        <mxCell id="uoKoED1i7HbzLLPc3mZA-40" style="edgeStyle=none;rounded=1;orthogonalLoop=1;jettySize=auto;html=1;" parent="1" source="uoKoED1i7HbzLLPc3mZA-37" edge="1">
          <mxGeometry relative="1" as="geometry">
            <mxPoint x="1210" y="479.99999999999955" as="targetPoint" />
          </mxGeometry>
        </mxCell>
        <mxCell id="uoKoED1i7HbzLLPc3mZA-37" value="Thêm sinh viên vào khóa học" style="ellipse;whiteSpace=wrap;html=1;" parent="1" vertex="1">
          <mxGeometry x="1260" y="440" width="200" height="50" as="geometry" />
        </mxCell>
        <mxCell id="uoKoED1i7HbzLLPc3mZA-39" style="edgeStyle=none;rounded=1;orthogonalLoop=1;jettySize=auto;html=1;entryX=1;entryY=0.5;entryDx=0;entryDy=0;exitX=0;exitY=0.5;exitDx=0;exitDy=0;" parent="1" source="uoKoED1i7HbzLLPc3mZA-38" target="uoKoED1i7HbzLLPc3mZA-32" edge="1">
          <mxGeometry relative="1" as="geometry" />
        </mxCell>
        <mxCell id="uoKoED1i7HbzLLPc3mZA-38" value="Xóa sinh viên khỏi khóa học" style="ellipse;whiteSpace=wrap;html=1;" parent="1" vertex="1">
          <mxGeometry x="1260" y="510" width="200" height="50" as="geometry" />
        </mxCell>
        <mxCell id="uoKoED1i7HbzLLPc3mZA-41" value="Quản lý bài tập trong khóa học" style="ellipse;whiteSpace=wrap;html=1;" parent="1" vertex="1">
          <mxGeometry x="640" y="700" width="200" height="50" as="geometry" />
        </mxCell>
        <mxCell id="XV8QXLfE8j4cKDhcSIMi-1" style="rounded=0;orthogonalLoop=1;jettySize=auto;html=1;entryX=1.014;entryY=0.703;entryDx=0;entryDy=0;entryPerimeter=0;exitX=0;exitY=0.5;exitDx=0;exitDy=0;" edge="1" parent="1" source="uoKoED1i7HbzLLPc3mZA-42" target="uoKoED1i7HbzLLPc3mZA-28">
          <mxGeometry relative="1" as="geometry" />
        </mxCell>
        <mxCell id="uoKoED1i7HbzLLPc3mZA-42" value="Quản lý bài kiểm tra" style="ellipse;whiteSpace=wrap;html=1;" parent="1" vertex="1">
          <mxGeometry x="1020" y="245" width="200" height="50" as="geometry" />
        </mxCell>
        <mxCell id="uoKoED1i7HbzLLPc3mZA-45" style="edgeStyle=none;rounded=1;orthogonalLoop=1;jettySize=auto;html=1;entryX=0.5;entryY=0;entryDx=0;entryDy=0;exitX=0.5;exitY=1;exitDx=0;exitDy=0;" parent="1" source="uoKoED1i7HbzLLPc3mZA-43" target="uoKoED1i7HbzLLPc3mZA-42" edge="1">
          <mxGeometry relative="1" as="geometry" />
        </mxCell>
        <mxCell id="uoKoED1i7HbzLLPc3mZA-43" value="Thêm bài kiểm tra" style="ellipse;whiteSpace=wrap;html=1;" parent="1" vertex="1">
          <mxGeometry x="830" y="130" width="200" height="50" as="geometry" />
        </mxCell>
        <mxCell id="uoKoED1i7HbzLLPc3mZA-49" style="edgeStyle=none;rounded=1;orthogonalLoop=1;jettySize=auto;html=1;entryX=0.5;entryY=0;entryDx=0;entryDy=0;" parent="1" source="uoKoED1i7HbzLLPc3mZA-46" target="uoKoED1i7HbzLLPc3mZA-42" edge="1">
          <mxGeometry relative="1" as="geometry" />
        </mxCell>
        <mxCell id="uoKoED1i7HbzLLPc3mZA-46" value="Sửa thông tin bài kiểm tra" style="ellipse;whiteSpace=wrap;html=1;" parent="1" vertex="1">
          <mxGeometry x="1060" y="120" width="200" height="50" as="geometry" />
        </mxCell>
        <mxCell id="uoKoED1i7HbzLLPc3mZA-48" style="edgeStyle=none;rounded=1;orthogonalLoop=1;jettySize=auto;html=1;entryX=0.5;entryY=0;entryDx=0;entryDy=0;exitX=0.5;exitY=1;exitDx=0;exitDy=0;" parent="1" source="uoKoED1i7HbzLLPc3mZA-47" target="uoKoED1i7HbzLLPc3mZA-42" edge="1">
          <mxGeometry relative="1" as="geometry" />
        </mxCell>
        <mxCell id="uoKoED1i7HbzLLPc3mZA-47" value="Xóa bài kiểm tra" style="ellipse;whiteSpace=wrap;html=1;" parent="1" vertex="1">
          <mxGeometry x="1290" y="130" width="200" height="50" as="geometry" />
        </mxCell>
        <mxCell id="XV8QXLfE8j4cKDhcSIMi-4" style="edgeStyle=none;rounded=0;orthogonalLoop=1;jettySize=auto;html=1;exitX=0.5;exitY=0;exitDx=0;exitDy=0;entryX=0.5;entryY=1;entryDx=0;entryDy=0;" edge="1" parent="1" source="XV8QXLfE8j4cKDhcSIMi-2" target="uoKoED1i7HbzLLPc3mZA-41">
          <mxGeometry relative="1" as="geometry" />
        </mxCell>
        <mxCell id="XV8QXLfE8j4cKDhcSIMi-2" value="Sửa thông tin bài tập" style="ellipse;whiteSpace=wrap;html=1;" vertex="1" parent="1">
          <mxGeometry x="280" y="840" width="200" height="50" as="geometry" />
        </mxCell>
        <mxCell id="XV8QXLfE8j4cKDhcSIMi-5" style="edgeStyle=none;rounded=0;orthogonalLoop=1;jettySize=auto;html=1;entryX=0.5;entryY=1;entryDx=0;entryDy=0;exitX=0.5;exitY=0;exitDx=0;exitDy=0;" edge="1" parent="1" source="XV8QXLfE8j4cKDhcSIMi-3" target="uoKoED1i7HbzLLPc3mZA-41">
          <mxGeometry relative="1" as="geometry" />
        </mxCell>
        <mxCell id="XV8QXLfE8j4cKDhcSIMi-3" value="Xóa bài tập" style="ellipse;whiteSpace=wrap;html=1;" vertex="1" parent="1">
          <mxGeometry x="520" y="840" width="200" height="50" as="geometry" />
        </mxCell>
        <mxCell id="XV8QXLfE8j4cKDhcSIMi-10" style="edgeStyle=none;rounded=0;orthogonalLoop=1;jettySize=auto;html=1;entryX=0.5;entryY=1;entryDx=0;entryDy=0;exitX=0.5;exitY=0;exitDx=0;exitDy=0;" edge="1" parent="1" source="XV8QXLfE8j4cKDhcSIMi-8" target="uoKoED1i7HbzLLPc3mZA-41">
          <mxGeometry relative="1" as="geometry" />
        </mxCell>
        <mxCell id="XV8QXLfE8j4cKDhcSIMi-8" value="Xuất bản bài tập" style="ellipse;whiteSpace=wrap;html=1;" vertex="1" parent="1">
          <mxGeometry x="760" y="840" width="200" height="50" as="geometry" />
        </mxCell>
        <mxCell id="XV8QXLfE8j4cKDhcSIMi-12" style="edgeStyle=none;rounded=0;orthogonalLoop=1;jettySize=auto;html=1;exitX=0.5;exitY=0;exitDx=0;exitDy=0;entryX=0.5;entryY=1;entryDx=0;entryDy=0;" edge="1" parent="1" source="XV8QXLfE8j4cKDhcSIMi-9" target="uoKoED1i7HbzLLPc3mZA-41">
          <mxGeometry relative="1" as="geometry">
            <mxPoint x="829.0092387408245" y="761.3945036606992" as="targetPoint" />
          </mxGeometry>
        </mxCell>
        <mxCell id="XV8QXLfE8j4cKDhcSIMi-9" value="Ẩn bài tập" style="ellipse;whiteSpace=wrap;html=1;" vertex="1" parent="1">
          <mxGeometry x="1000" y="840" width="200" height="50" as="geometry" />
        </mxCell>
        <mxCell id="XV8QXLfE8j4cKDhcSIMi-13" style="edgeStyle=none;rounded=1;orthogonalLoop=1;jettySize=auto;html=1;entryX=0.5;entryY=1;entryDx=0;entryDy=0;exitX=0.5;exitY=0;exitDx=0;exitDy=0;" edge="1" parent="1" source="XV8QXLfE8j4cKDhcSIMi-14" target="XV8QXLfE8j4cKDhcSIMi-15">
          <mxGeometry relative="1" as="geometry" />
        </mxCell>
        <mxCell id="XV8QXLfE8j4cKDhcSIMi-14" value="Thêm bài kiểm tra" style="ellipse;whiteSpace=wrap;html=1;" vertex="1" parent="1">
          <mxGeometry x="170" y="1100" width="200" height="50" as="geometry" />
        </mxCell>
        <mxCell id="XV8QXLfE8j4cKDhcSIMi-15" value="Quản lý bài kiểm tra" style="ellipse;whiteSpace=wrap;html=1;" vertex="1" parent="1">
          <mxGeometry x="650" y="960" width="200" height="50" as="geometry" />
        </mxCell>
        <mxCell id="XV8QXLfE8j4cKDhcSIMi-16" style="edgeStyle=none;rounded=0;orthogonalLoop=1;jettySize=auto;html=1;exitX=0.5;exitY=0;exitDx=0;exitDy=0;entryX=0.5;entryY=1;entryDx=0;entryDy=0;" edge="1" parent="1" source="XV8QXLfE8j4cKDhcSIMi-17" target="XV8QXLfE8j4cKDhcSIMi-15">
          <mxGeometry relative="1" as="geometry" />
        </mxCell>
        <mxCell id="XV8QXLfE8j4cKDhcSIMi-17" value="Sửa thông tin bài kiểm tra" style="ellipse;whiteSpace=wrap;html=1;" vertex="1" parent="1">
          <mxGeometry x="410" y="1100" width="200" height="50" as="geometry" />
        </mxCell>
        <mxCell id="XV8QXLfE8j4cKDhcSIMi-18" style="edgeStyle=none;rounded=0;orthogonalLoop=1;jettySize=auto;html=1;entryX=0.5;entryY=1;entryDx=0;entryDy=0;exitX=0.5;exitY=0;exitDx=0;exitDy=0;" edge="1" parent="1" source="XV8QXLfE8j4cKDhcSIMi-19" target="XV8QXLfE8j4cKDhcSIMi-15">
          <mxGeometry relative="1" as="geometry" />
        </mxCell>
        <mxCell id="XV8QXLfE8j4cKDhcSIMi-19" value="Xóa bài kiểm tra" style="ellipse;whiteSpace=wrap;html=1;" vertex="1" parent="1">
          <mxGeometry x="650" y="1100" width="200" height="50" as="geometry" />
        </mxCell>
        <mxCell id="XV8QXLfE8j4cKDhcSIMi-20" style="edgeStyle=none;rounded=0;orthogonalLoop=1;jettySize=auto;html=1;entryX=0.5;entryY=1;entryDx=0;entryDy=0;exitX=0.5;exitY=0;exitDx=0;exitDy=0;" edge="1" parent="1" source="XV8QXLfE8j4cKDhcSIMi-21" target="XV8QXLfE8j4cKDhcSIMi-15">
          <mxGeometry relative="1" as="geometry" />
        </mxCell>
        <mxCell id="XV8QXLfE8j4cKDhcSIMi-21" value="Xuất bản bài kiểm tra" style="ellipse;whiteSpace=wrap;html=1;" vertex="1" parent="1">
          <mxGeometry x="890" y="1100" width="200" height="50" as="geometry" />
        </mxCell>
        <mxCell id="XV8QXLfE8j4cKDhcSIMi-22" style="edgeStyle=none;rounded=0;orthogonalLoop=1;jettySize=auto;html=1;exitX=0.5;exitY=0;exitDx=0;exitDy=0;entryX=0.5;entryY=1;entryDx=0;entryDy=0;" edge="1" parent="1" source="XV8QXLfE8j4cKDhcSIMi-23" target="XV8QXLfE8j4cKDhcSIMi-15">
          <mxGeometry relative="1" as="geometry">
            <mxPoint x="839.0092387408245" y="1021.3945036606992" as="targetPoint" />
          </mxGeometry>
        </mxCell>
        <mxCell id="XV8QXLfE8j4cKDhcSIMi-23" value="Ẩn bài kiểm tra" style="ellipse;whiteSpace=wrap;html=1;" vertex="1" parent="1">
          <mxGeometry x="1130" y="1100" width="200" height="50" as="geometry" />
        </mxCell>
        <mxCell id="XV8QXLfE8j4cKDhcSIMi-26" style="edgeStyle=none;rounded=0;orthogonalLoop=1;jettySize=auto;html=1;exitX=0.5;exitY=0;exitDx=0;exitDy=0;entryX=0.5;entryY=1;entryDx=0;entryDy=0;" edge="1" parent="1" source="XV8QXLfE8j4cKDhcSIMi-24" target="uoKoED1i7HbzLLPc3mZA-41">
          <mxGeometry relative="1" as="geometry">
            <mxPoint x="1127.8599986999347" y="686.9508264713986" as="targetPoint" />
          </mxGeometry>
        </mxCell>
        <mxCell id="XV8QXLfE8j4cKDhcSIMi-24" value="Chấm điểm" style="ellipse;whiteSpace=wrap;html=1;" vertex="1" parent="1">
          <mxGeometry x="1240" y="840" width="200" height="50" as="geometry" />
        </mxCell>
        <mxCell id="XV8QXLfE8j4cKDhcSIMi-28" style="edgeStyle=none;rounded=0;orthogonalLoop=1;jettySize=auto;html=1;entryX=0.5;entryY=1;entryDx=0;entryDy=0;exitX=0.5;exitY=0;exitDx=0;exitDy=0;" edge="1" parent="1" source="XV8QXLfE8j4cKDhcSIMi-27" target="XV8QXLfE8j4cKDhcSIMi-15">
          <mxGeometry relative="1" as="geometry" />
        </mxCell>
        <mxCell id="XV8QXLfE8j4cKDhcSIMi-27" value="Thêm câu hỏi" style="ellipse;whiteSpace=wrap;html=1;" vertex="1" parent="1">
          <mxGeometry x="1360" y="1100" width="200" height="50" as="geometry" />
        </mxCell>
        <mxCell id="XV8QXLfE8j4cKDhcSIMi-29" value="Thêm câu hỏi bằng file" style="ellipse;whiteSpace=wrap;html=1;" vertex="1" parent="1">
          <mxGeometry x="1240" y="1240" width="200" height="50" as="geometry" />
        </mxCell>
        <mxCell id="XV8QXLfE8j4cKDhcSIMi-30" value="Bằng ngân hàng câu hỏi" style="ellipse;whiteSpace=wrap;html=1;" vertex="1" parent="1">
          <mxGeometry x="1520" y="1240" width="200" height="50" as="geometry" />
        </mxCell>
      </root>
    </mxGraphModel>
  </diagram>
</mxfile>
